<svg width="155" height="160" viewBox="0 0 155 160" fill="none" xmlns="http://www.w3.org/2000/svg">
<path d="M110.574 147.594L95.841 156.859L90.0364 140.452C87.3419 132.838 87.3195 124.532 89.9727 116.903L107.301 67.0721C113.246 49.9766 125.259 35.6574 141.06 26.8301C147.974 43.5564 148.509 62.2383 142.564 79.3331L125.236 129.166C122.583 136.795 117.412 143.294 110.574 147.594Z" fill="#B26643"/>
<path d="M137.998 92.4664L99.2324 90.2787L103.612 77.6851L142.377 79.8727L137.998 92.4664Z" fill="#F55648"/>
<path d="M133.618 105.059L94.853 102.872L99.2324 90.2783L137.998 92.466L133.618 105.059Z" fill="#FBB540"/>
<path d="M129.239 117.653L90.4734 115.466L94.853 102.872L133.618 105.059L129.239 117.653Z" fill="#8FEAFF"/>
<path d="M142.537 30.7067L99.4566 154.587L95.8433 156.86L94.4199 152.833L137.497 28.9534C138.663 28.2134 139.851 27.5056 141.06 26.8301C141.59 28.1101 142.082 29.4023 142.537 30.7067Z" fill="#834B31"/>
<path d="M34.6665 10.6667C33.9593 10.6667 33.281 10.3857 32.7809 9.88562C32.2808 9.38552 31.9999 8.70724 31.9999 8V2.66667C31.9999 1.95942 32.2808 1.28115 32.7809 0.781048C33.281 0.280951 33.9593 0 34.6665 0C35.3738 0 36.0521 0.280951 36.5522 0.781048C37.0523 1.28115 37.3332 1.95942 37.3332 2.66667V8C37.3332 8.70724 37.0523 9.38552 36.5522 9.88562C36.0521 10.3857 35.3738 10.6667 34.6665 10.6667Z" fill="#FBB540"/>
<path d="M19.5816 16.9151C19.2313 16.9155 18.8843 16.8467 18.5607 16.7125C18.2371 16.5784 17.9432 16.3816 17.6959 16.1334L13.9246 12.3628C13.677 12.1151 13.4806 11.8211 13.3466 11.4976C13.2126 11.174 13.1436 10.8272 13.1437 10.477C13.1437 9.76978 13.4248 9.09151 13.9249 8.59145C14.4251 8.09138 15.1034 7.81048 15.8106 7.81055C16.5179 7.81061 17.1962 8.09163 17.6962 8.59178L21.4666 12.3628C21.8395 12.7357 22.0935 13.2109 22.1964 13.7282C22.2993 14.2455 22.2465 14.7817 22.0447 15.269C21.8428 15.7562 21.501 16.1727 21.0625 16.4657C20.6239 16.7587 20.1083 16.9151 19.5809 16.9151H19.5816Z" fill="#FBB540"/>
<path d="M13.3333 32.0003H7.99992C7.29267 32.0003 6.6144 31.7194 6.1143 31.2193C5.6142 30.7192 5.33325 30.0409 5.33325 29.3337C5.33325 28.6264 5.6142 27.9481 6.1143 27.448C6.6144 26.9479 7.29267 26.667 7.99992 26.667H13.3333C14.0405 26.667 14.7188 26.9479 15.2189 27.448C15.719 27.9481 15.9999 28.6264 15.9999 29.3337C15.9999 30.0409 15.719 30.7192 15.2189 31.2193C14.7188 31.7194 14.0405 32.0003 13.3333 32.0003Z" fill="#FBB540"/>
<path d="M15.8106 50.856C15.2832 50.856 14.7676 50.6997 14.3291 50.4067C13.8906 50.1137 13.5488 49.6973 13.3469 49.2101C13.145 48.7228 13.0921 48.1867 13.195 47.6694C13.2978 47.1522 13.5517 46.677 13.9246 46.304L17.6959 42.5333C17.9419 42.2787 18.2361 42.0755 18.5615 41.9357C18.8868 41.796 19.2367 41.7224 19.5908 41.7193C19.9449 41.7163 20.2961 41.7837 20.6238 41.9178C20.9515 42.0519 21.2492 42.2499 21.4996 42.5003C21.75 42.7507 21.948 43.0484 22.0821 43.3761C22.2162 43.7039 22.2836 44.055 22.2806 44.4091C22.2775 44.7632 22.2039 45.1131 22.0642 45.4384C21.9244 45.7638 21.7213 46.058 21.4666 46.304L17.6962 50.075C17.4488 50.323 17.1549 50.5196 16.8313 50.6536C16.5077 50.7876 16.1608 50.8564 15.8106 50.856Z" fill="#FBB540"/>
<path d="M34.6665 58.6667C33.9593 58.6667 33.281 58.3857 32.7809 57.8856C32.2808 57.3855 31.9999 56.7072 31.9999 56V50.6667C31.9999 49.9594 32.2808 49.2811 32.7809 48.781C33.281 48.2809 33.9593 48 34.6665 48C35.3738 48 36.0521 48.2809 36.5522 48.781C37.0523 49.2811 37.3332 49.9594 37.3332 50.6667V56C37.3332 56.7072 37.0523 57.3855 36.5522 57.8856C36.0521 58.3857 35.3738 58.6667 34.6665 58.6667Z" fill="#FBB540"/>
<path d="M53.5226 50.856C53.1723 50.8564 52.8254 50.7876 52.5019 50.6536C52.1783 50.5196 51.8843 50.323 51.6369 50.075L47.8666 46.304C47.6119 46.058 47.4087 45.7638 47.269 45.4384C47.1292 45.1131 47.0557 44.7632 47.0526 44.4091C47.0495 44.055 47.117 43.7039 47.2511 43.3761C47.3852 43.0484 47.5832 42.7507 47.8335 42.5003C48.0839 42.2499 48.3817 42.0519 48.7094 41.9178C49.0371 41.7837 49.3883 41.7163 49.7423 41.7193C50.0964 41.7224 50.4463 41.796 50.7717 41.9357C51.097 42.0755 51.3913 42.2787 51.6373 42.5333L55.4086 46.3047C55.7815 46.6777 56.0354 47.1528 56.1382 47.6701C56.241 48.1874 56.1881 48.7235 55.9863 49.2107C55.7844 49.698 55.4426 50.1144 55.0041 50.4074C54.5655 50.7003 54.05 50.8567 53.5226 50.8567V50.856Z" fill="#FBB540"/>
<path d="M61.3333 32.0003H55.9999C55.2927 32.0003 54.6144 31.7194 54.1143 31.2193C53.6142 30.7192 53.3333 30.0409 53.3333 29.3337C53.3333 28.6264 53.6142 27.9481 54.1143 27.448C54.6144 26.9479 55.2927 26.667 55.9999 26.667H61.3333C62.0405 26.667 62.7188 26.9479 63.2189 27.448C63.719 27.9481 63.9999 28.6264 63.9999 29.3337C63.9999 30.0409 63.719 30.7192 63.2189 31.2193C62.7188 31.7194 62.0405 32.0003 61.3333 32.0003Z" fill="#FBB540"/>
<path d="M49.7515 16.9151C49.2242 16.915 48.7087 16.7585 48.2702 16.4655C47.8318 16.1724 47.4901 15.7559 47.2883 15.2686C47.0866 14.7814 47.0338 14.2453 47.1367 13.728C47.2397 13.2108 47.4936 12.7357 47.8665 12.3628L51.6375 8.59178C52.1376 8.09163 52.8159 7.81061 53.5231 7.81055C54.2304 7.81048 54.9087 8.09138 55.4089 8.59145C55.909 9.09152 56.1901 9.76978 56.1901 10.477C56.1902 11.1843 55.9093 11.8626 55.4092 12.3628L51.6372 16.1334C51.3899 16.3816 51.096 16.5784 50.7724 16.7125C50.4488 16.8467 50.1019 16.9155 49.7515 16.9151Z" fill="#FBB540"/>
<path d="M37.2923 61.9163C37.1506 60.6668 36.6583 59.4829 35.8724 58.5013C35.0865 57.5196 34.039 56.7803 32.8508 56.3686C31.6626 55.9569 30.3822 55.8896 29.1574 56.1746C27.9326 56.4595 26.8134 57.0851 25.929 57.979C25.466 56.9762 24.8003 56.0802 23.9739 55.3474C23.1475 54.6146 22.1783 54.061 21.1273 53.7213C20.0763 53.3816 18.9664 53.2633 17.8674 53.3738C16.7685 53.4843 15.7043 53.8212 14.742 54.3633C14.0189 53.2289 13.0212 52.2953 11.8412 51.6492C10.6613 51.003 9.33729 50.6652 7.992 50.667C3.595 50.6713 0 54.46 0 58.8567V62.0003C0 63.9453 0.772617 65.8105 2.14788 67.1858C3.52315 68.561 5.38841 69.3337 7.33333 69.3337H32L32.0353 69.1917C33.6598 68.8506 35.0986 67.916 36.0708 66.5706C37.0429 65.2253 37.4785 63.5657 37.2923 61.9163Z" fill="#6EE7F5"/>
<path d="M40.041 83.2493C40.1827 81.9999 40.675 80.8159 41.4609 79.8343C42.2468 78.8526 43.2943 78.1133 44.4825 77.7016C45.6707 77.2899 46.9511 77.2226 48.1759 77.5076C49.4007 77.7925 50.5199 78.4181 51.4043 79.312C51.8673 78.3092 52.533 77.4132 53.3594 76.6804C54.1858 75.9476 55.155 75.394 56.206 75.0543C57.257 74.7146 58.3669 74.5963 59.4659 74.7068C60.5649 74.8173 61.629 75.1542 62.5913 75.6963C63.3144 74.5619 64.3122 73.6284 65.4921 72.9822C66.6721 72.3361 67.996 71.9982 69.3413 72C73.7383 72.0043 77.3333 75.793 77.3333 80.1897V83.3333C77.3333 85.2783 76.5607 87.1435 75.1854 88.5188C73.8102 89.8941 71.9449 90.6667 70 90.6667H45.3333L45.298 90.5247C43.6736 90.1836 42.2347 89.249 41.2625 87.9036C40.2904 86.5583 39.8548 84.8987 40.041 83.2493Z" fill="#6EE7F5"/>
<path d="M131.991 8.00033C131.417 7.23385 130.685 6.60021 129.844 6.14266C129.003 5.68512 128.073 5.41445 127.118 5.34914C126.162 5.28383 125.204 5.42541 124.309 5.76421C123.413 6.10302 122.602 6.63108 121.929 7.31233C121.327 6.00946 120.386 4.89247 119.204 4.07844C118.022 3.2644 116.643 2.78331 115.211 2.68557C113.779 2.58783 112.348 2.87705 111.066 3.52292C109.784 4.16879 108.7 5.14752 107.927 6.35652C107.154 7.56553 106.72 8.96028 106.671 10.3946C106.622 11.8289 106.96 13.2499 107.649 14.5088C108.338 15.7676 109.353 16.8179 110.588 17.5495C111.823 18.2811 113.231 18.6671 114.667 18.667H133.333C134.748 18.667 136.104 18.1051 137.104 17.1049C138.105 16.1047 138.667 14.7481 138.667 13.3337C138.667 11.9192 138.105 10.5626 137.104 9.56242C136.104 8.56223 134.748 8.00033 133.333 8.00033H131.991Z" fill="#6EE7F5"/>
<path d="M97.758 144.469L85.3333 160L72.9087 144.469C67.1417 137.261 63.9999 128.304 64 119.073V58.778C64 38.093 71.5909 18.1272 85.3333 2.66699C99.0757 18.1272 106.667 38.093 106.667 58.778V119.073C106.667 128.304 103.525 137.261 97.758 144.469Z" fill="#FBB540"/>
<path d="M88.0001 5.82033V156.667H82.6667V5.82033C83.5267 4.75033 84.4156 3.69921 85.3334 2.66699C86.2501 3.69699 87.139 4.7481 88.0001 5.82033Z" fill="#FBB540"/>
<path d="M106.667 58.7763V63.9997L85.3333 53.333L64 63.9997V58.7763C64.0001 52.0468 64.8047 45.3415 66.3967 38.803L85.3333 29.333L104.27 38.803C105.862 45.3415 106.667 52.0468 106.667 58.7763Z" fill="#FBB540"/>
<path d="M106.667 87.9997L85.3333 77.333L64 87.9997V63.9997L85.3333 53.333L106.667 63.9997V87.9997Z" fill="#0296E5"/>
<path d="M106.667 112L85.3333 101.333L64 112V87.9997L85.3333 77.333L106.667 87.9997V112Z" fill="#02A437"/>
<path d="M106.667 58.7763V63.9997L85.3333 53.333L64 63.9997V58.7763C64.0001 52.0468 64.8047 45.3415 66.3967 38.803L85.3333 29.333L104.27 38.803C105.862 45.3415 106.667 52.0468 106.667 58.7763Z" fill="#F55648"/>
<path d="M88.0001 5.82033V156.667H82.6667V5.82033C83.5267 4.75033 84.4156 3.69921 85.3334 2.66699C86.2501 3.69699 87.139 4.7481 88.0001 5.82033Z" fill="#D18D28"/>
<path d="M34.6667 40.0003C40.5577 40.0003 45.3333 35.2247 45.3333 29.3337C45.3333 23.4426 40.5577 18.667 34.6667 18.667C28.7756 18.667 24 23.4426 24 29.3337C24 35.2247 28.7756 40.0003 34.6667 40.0003Z" fill="#FBB540"/>
<path d="M0 149.333H50.6667C50.6667 145.661 51.9298 142.101 54.2439 139.25C56.5579 136.399 59.7822 134.431 63.3756 133.676C66.969 132.92 70.7129 133.424 73.9789 135.102C77.2449 136.78 79.8343 139.531 81.3127 142.892C85.1941 141.163 89.5614 140.862 93.6435 142.04C97.7256 143.219 101.26 145.802 103.623 149.333H154.667V160H0V149.333Z" fill="#D18D28"/>
</svg>
