<svg width="299" height="262" viewBox="0 0 299 262" fill="none" xmlns="http://www.w3.org/2000/svg">
<g clip-path="url(#clip0)">
<path d="M105.377 88.6876C107.349 86.6562 110.017 83.8121 112.917 80.2136L112.337 56.5906C108.509 63.6136 105.029 72.7262 102.941 84.3345L94.6481 69.4178C99.6357 62.9171 108.915 49.1032 111.757 33.1418L111.467 20.5467C107.755 23.3908 94.1262 35.7537 91.8063 64.2521L84.325 50.7284C88.1526 42.7187 96.214 22.6943 90.5884 4.64333C90.5884 4.64333 77.9455 17.0642 80.8453 44.4599L76.5536 36.6243C73.9438 26.7572 67.5644 9.46079 53.7615 0C53.7615 0 51.5577 17.7027 70.9861 37.4949L78.8154 51.6571C55.1534 30.5299 35.551 35.2313 35.551 35.2313C49.2959 51.1347 73.9438 54.0368 80.3813 54.5592L88.7326 69.65C57.4732 51.9473 36.8849 61.8144 36.8849 61.8144C55.1534 75.6863 81.8312 73.829 90.4145 72.7842L99.5197 89.21C61.4749 72.5521 39.2047 86.5401 39.2047 86.5401C61.8808 99.8897 92.0383 93.9694 101.028 91.7058L112.801 112.949C74.6398 96.2911 52.3696 110.337 52.3696 110.337C74.6398 123.513 104.217 117.941 113.729 115.619L113.439 103.256L105.377 88.6876Z" fill="#E6E9FF"/>
<path d="M99.5197 97.278L97.4899 102.734L96.156 100.238L98.4178 95.1885L99.5197 97.278Z" fill="#E6E9FF"/>
<path d="M95.982 108.944L95.2281 115.097L93.1403 115.329L94.1842 108.306L95.982 108.944Z" fill="#E6E9FF"/>
<path d="M92.7923 167.392L107.001 162.923L117.092 158.338L113.439 150.27C105.145 154.797 97.0839 160.892 92.7923 167.392Z" fill="#E6E9FF"/>
<path d="M29.8095 83.6961C29.8095 83.6961 29.7515 101.747 51.6157 119.276L42.8004 116.78C33.8112 111.614 16.7026 103.837 0 107.087C0 107.087 11.2511 121.365 39.4367 121.481L55.2694 125.95C23.0241 127.982 12.411 145.51 12.411 145.51C33.7532 146.962 53.5295 131.174 58.5171 126.879L75.3937 131.639C45.5262 140.113 35.551 157.177 33.1732 162.168C38.6828 161.994 44.0763 160.717 48.9479 158.222C63.8527 150.676 74.8138 137.849 78.8734 132.567L97.3159 137.733C80.0913 144.582 69.3042 153.462 62.6348 161.298L55.3854 171.571L66.4625 167.218C80.4393 161.762 92.2123 151.837 99.9837 139.01C100.042 138.894 100.158 138.72 100.216 138.604L109.205 141.099L106.247 134.657L101.086 133.206C101.028 130.362 100.912 126.415 100.39 121.829L80.6713 78.6465C79.3374 86.308 78.3515 106.506 96.272 131.871L79.5694 127.169C78.1195 116.722 73.1319 92.6345 56.4293 78.8786C56.4293 78.8786 51.8477 99.9478 73.8278 125.544L58.6911 121.307C55.6174 112.659 46.8601 92.5765 29.8095 83.6961Z" fill="#E6E9FF"/>
<path d="M101.065 151.339H136.152V128.587H101.065V151.339Z" fill="#302454"/>
<path fill-rule="evenodd" clip-rule="evenodd" d="M136.637 239.828L143.828 239.712L144.002 249.637L136.753 249.753L136.637 239.828Z" fill="white"/>
<path fill-rule="evenodd" clip-rule="evenodd" d="M69.9422 230.309L75.7417 234.72L69.7682 242.672L63.9687 238.261L69.9422 230.309Z" fill="white"/>
<path fill-rule="evenodd" clip-rule="evenodd" d="M154.963 255.267C154.963 255.557 154.847 255.847 154.673 256.021C154.441 256.196 154.151 256.312 153.861 256.312C150.845 256.138 142.842 255.615 138.782 255.383C138.145 255.325 137.565 255.093 137.101 254.628C136.637 254.164 136.405 253.642 136.405 253.061C136.405 250.914 136.405 248.012 136.405 248.012L144.002 248.244C144.002 248.244 149.57 250.74 152.701 252.191C153.977 252.771 154.905 253.99 154.963 255.267Z" fill="#302454"/>
<path fill-rule="evenodd" clip-rule="evenodd" d="M73.3639 255.964C73.1319 256.08 72.8419 256.138 72.494 256.08C72.146 256.022 71.856 255.79 71.566 255.557C69.2462 253.062 63.0987 246.561 60.025 243.253C59.561 242.73 59.2711 242.15 59.2711 241.569C59.2711 240.989 59.503 240.583 59.967 240.292C61.7069 239.306 64.0847 238.029 64.0847 238.029L69.3042 242.208C69.3042 242.208 72.61 249.637 74.0018 252.713C74.5818 254.106 74.3498 255.325 73.3639 255.964Z" fill="#302454"/>
<path fill-rule="evenodd" clip-rule="evenodd" d="M127.995 137.617L112.105 187.648C110.191 193.627 107.175 199.257 103.231 204.132L75.6837 238.377C75.2777 238.899 74.5238 238.957 74.0598 238.551L65.9985 232.166C65.5345 231.818 65.4185 231.122 65.7085 230.599C75.3357 215.044 78.0615 194.439 93.6622 189.448L94.0102 150.676C93.1402 144.349 94.1841 134.831 96.7939 130.419L127.995 137.617Z" fill="#3B2D69"/>
<path fill-rule="evenodd" clip-rule="evenodd" d="M144.756 133.786L147.888 190.261L147.424 240.583C147.424 242.034 146.264 243.253 144.756 243.311L137.333 243.601C135.941 243.659 134.723 242.672 134.491 241.279C131.649 223.402 122.022 202.74 131.243 189.854L116.28 134.599L144.756 133.786Z" fill="#3B2D69"/>
<path d="M122.022 156.074L129.909 155.958L126.371 171.978L122.022 156.074Z" fill="#09183B"/>
<path fill-rule="evenodd" clip-rule="evenodd" d="M96.736 130.361C94.1842 134.772 93.0823 144.233 93.9522 150.618L93.6042 189.39C77.3076 192.002 75.2777 215.044 65.6505 230.541C65.3606 231.064 65.4186 231.702 65.9405 232.108L67.2164 233.153L86.2968 208.427C86.2968 208.427 98.6498 195.136 99.2298 189.912C99.7517 185.617 104.971 146.613 106.827 132.741L96.736 130.361Z" fill="#09183B"/>
<path fill-rule="evenodd" clip-rule="evenodd" d="M186.28 128.968C186.628 128.678 186.86 128.214 186.86 127.749C186.86 127.285 186.744 126.821 186.396 126.473C185.469 125.428 184.251 124.035 183.323 123.048C182.685 122.352 181.641 122.294 180.945 122.932C180.481 123.338 179.901 123.861 179.379 124.325C178.451 125.138 178.393 126.589 179.205 127.517C180.017 128.446 181.003 129.549 181.757 130.419C182.105 130.826 182.569 131.058 183.091 131.058C183.613 131.116 184.135 130.942 184.483 130.593C185.121 130.013 185.701 129.433 186.28 128.968Z" fill="white"/>
<path d="M138.202 70.8687H155.253L164.648 102.269L183.613 123.919L180.481 127.808C169.984 119.566 150.323 112.543 148.294 104.243L137.448 78.7623L138.202 70.8687Z" fill="white"/>
<path d="M143.19 90.8353C149.743 89.9066 155.949 87.1206 161.053 78.9948L150.671 64.6005C145.278 58.0418 137.159 52.6439 123.994 53.2823L136.173 65.413C132.635 67.7347 131.533 72.4361 133.679 75.8605L143.19 90.8353Z" fill="#7E5EE0"/>
<path d="M197.358 131.581L200.431 153.752" stroke="#B2B8DB" stroke-width="4.1726" stroke-miterlimit="10" stroke-linecap="round" stroke-linejoin="round"/>
<path d="M295.369 165.303L199.387 146.497L207.217 209.298" stroke="#9DA4CC" stroke-width="4.1726" stroke-miterlimit="10" stroke-linecap="round" stroke-linejoin="round"/>
<path d="M259.006 147.658C258.542 147.658 258.195 147.31 258.195 146.903C258.195 146.787 257.441 133.67 251.119 128.795C249.031 127.169 246.537 126.589 243.696 127.169C240.1 127.866 237.49 129.491 235.866 132.103C232.561 137.443 234.648 145.046 234.648 145.104C234.764 145.569 234.532 145.975 234.068 146.149C233.663 146.265 233.199 146.033 233.025 145.569C232.909 145.22 230.705 137.211 234.416 131.232C236.272 128.214 239.288 126.299 243.348 125.544C246.711 124.906 249.669 125.544 252.105 127.518C259.006 132.915 259.76 146.323 259.818 146.845C259.876 147.252 259.528 147.6 259.006 147.658C259.064 147.658 259.006 147.658 259.006 147.658Z" fill="#302454"/>
<path fill-rule="evenodd" clip-rule="evenodd" d="M269.272 143.247L220.034 143.073L242.884 206.744L275.477 204.075L271.823 143.247H269.272Z" fill="#FFCD89"/>
<path d="M227.109 147.832H227.051C226.587 147.774 226.239 147.426 226.297 146.961C226.297 146.845 227.225 133.786 221.657 128.04C219.802 126.125 217.424 125.254 214.524 125.428C210.87 125.66 208.029 126.937 206.115 129.317C202.113 134.192 203.215 141.97 203.215 142.086C203.273 142.55 202.983 142.957 202.519 143.015C202.055 143.073 201.649 142.782 201.591 142.318C201.533 141.97 200.431 133.728 204.839 128.272C207.043 125.544 210.29 124.035 214.408 123.803C217.83 123.629 220.672 124.673 222.875 126.879C228.965 133.148 228.037 146.497 227.979 147.078C227.863 147.484 227.515 147.832 227.109 147.832Z" fill="#302454"/>
<path fill-rule="evenodd" clip-rule="evenodd" d="M237.606 141.796L194.11 143.479L191.906 211.156L247.349 206.686L237.606 141.796Z" fill="#7E5EE0"/>
<path fill-rule="evenodd" clip-rule="evenodd" d="M237.606 141.796L227.921 142.202L229.139 208.137L247.349 206.686L237.606 141.796Z" fill="#7155C9"/>
<path d="M169.462 130.071L172.536 152.243" stroke="#B2B8DB" stroke-width="4.1726" stroke-miterlimit="10" stroke-linecap="round" stroke-linejoin="round"/>
<path d="M183.613 214.348V218.236L229.139 214.348" stroke="#B2B8DB" stroke-width="4.1726" stroke-miterlimit="10" stroke-linecap="round" stroke-linejoin="round"/>
<path d="M183.613 218.237L172.536 230.716V244.007H268.46" stroke="#B2B8DB" stroke-width="4.1726" stroke-miterlimit="10" stroke-linecap="round" stroke-linejoin="round"/>
<path d="M128.169 107.609H139.884L131.069 75.3379H119.354L128.169 107.609Z" fill="#FFCD85"/>
<path d="M124.284 53.224C112.511 53.3981 100.1 58.1575 95.286 87.3524C92.2703 105.752 93.9521 139.184 93.9521 139.184C93.9521 139.184 148.004 148.819 146.844 137.036C146.844 105.403 150.207 76.2085 142.668 65.6449C133.795 55.0232 128.865 53.1659 124.284 53.224Z" fill="#7E5EE0"/>
<path d="M134.085 53.9787C134.085 53.9787 137.159 64.8325 134.607 67.1542C132.055 69.4759 119.702 53.2242 119.702 53.2242C124.574 53.0501 128.749 52.7599 134.085 53.9787Z" fill="white"/>
<path d="M173.753 126.125H195.096C196.72 126.125 198.053 127.285 198.285 128.852L198.865 132.857H173.753C171.898 132.857 170.39 131.348 170.39 129.491C170.39 127.634 171.898 126.125 173.753 126.125Z" fill="#302454"/>
<path d="M121.384 53.34L127.879 59.3763L133.157 44.2855L124.98 42.3701L121.384 53.34Z" fill="white"/>
<path d="M138.086 40.6873C138.086 40.6873 136.637 40.8033 136.057 38.5397C135.303 35.5215 136.579 28.4405 135.187 28.2083C134.781 28.1503 132.055 27.6859 133.447 26.9314C135.709 25.6545 139.768 29.7754 139.884 30.646C140.986 35.8698 139.71 39.6425 138.086 40.6873Z" fill="#302454"/>
<path d="M137.913 29.0788C137.913 29.0788 139.536 31.9228 139.362 33.9543C139.304 34.883 139.246 45.0402 138.376 47.1297C137.855 48.3486 136.057 49.3353 134.781 49.2773C131.939 49.0451 125.27 49.1612 124.342 43.6472C123.356 37.6109 123.994 30.4718 123.994 30.4718C123.994 30.4718 132.577 25.4802 137.913 29.0788Z" fill="white"/>
<path d="M139.942 30.9938C139.942 31.5742 139.246 33.3155 138.666 33.1994C132.113 31.9225 128.053 32.0966 126.139 33.954C125.965 34.1281 126.603 35.0567 126.603 35.347C126.835 39.2938 125.791 41.035 125.038 44.6336C124.806 45.7364 124.11 46.6651 123.124 47.1875C121.616 46.8392 120.804 44.0532 120.224 42.7182C118.542 38.8295 116.976 31.0519 121.964 30.2393C121.848 27.5694 123.646 26.5246 127.705 25.9442C138.84 24.261 140 28.7882 139.942 30.9938Z" fill="#302454"/>
<path d="M127.299 39.7002C127.995 40.9771 127.647 42.5442 126.545 43.1246C125.443 43.7631 123.936 43.1827 123.24 41.9058C122.544 40.6289 122.892 39.0617 123.994 38.4813C125.153 37.8429 126.603 38.4233 127.299 39.7002Z" fill="white"/>
<path d="M139.884 33.3738C139.884 33.3738 142.9 26.0025 137.391 24.1452C130.199 21.7655 125.733 28.6144 124.69 29.427C123.994 30.0074 120.92 33.3738 125.965 33.7801C128.343 33.9542 132.809 35.057 139.884 33.3738Z" fill="#302454"/>
<path d="M128.053 41.9641C128.633 41.9061 129.097 41.3257 129.039 40.7453L128.053 32.5033C127.995 31.9229 127.415 31.4586 126.835 31.5166C126.255 31.5747 124.342 32.2712 124.458 32.9096L126.835 40.9774C126.951 41.6159 127.473 42.0222 128.053 41.9641Z" fill="#302454"/>
<path fill-rule="evenodd" clip-rule="evenodd" d="M131.533 48.9869C131.533 48.9869 130.373 48.6387 128.807 48.1743C128.807 48.1743 129.735 50.2638 130.895 50.8442L131.533 48.9869Z" fill="#302454"/>
<path d="M145.858 128.04H167.2C168.824 128.04 170.158 129.201 170.39 130.768L170.97 134.773H145.858C144.002 134.773 142.494 133.264 142.494 131.406C142.494 129.549 144.002 128.04 145.858 128.04Z" fill="#302454"/>
<path fill-rule="evenodd" clip-rule="evenodd" d="M154.209 135.063C154.557 134.773 154.789 134.309 154.789 133.844C154.789 133.38 154.673 132.916 154.325 132.567C153.397 131.523 152.179 130.13 151.251 129.143C150.613 128.446 149.57 128.388 148.874 129.027C148.41 129.433 147.83 129.955 147.308 130.42C146.38 131.232 146.322 132.683 147.134 133.612C147.946 134.541 148.932 135.643 149.686 136.514C150.034 136.92 150.497 137.153 151.019 137.153C151.541 137.211 152.063 137.036 152.411 136.688C153.049 136.108 153.687 135.527 154.209 135.063Z" fill="white"/>
<path d="M267.822 262C271.986 262 275.361 258.622 275.361 254.455C275.361 250.287 271.986 246.909 267.822 246.909C263.658 246.909 260.282 250.287 260.282 254.455C260.282 258.622 263.658 262 267.822 262Z" fill="#302454"/>
<path d="M267.822 256.021H268.17C269.503 256.021 271.127 255.151 271.127 253.816L272.229 243.775C272.229 242.44 271.127 241.337 269.793 241.337H265.85C264.516 241.337 263.414 242.44 263.414 243.775L265.154 253.874C265.154 255.209 266.488 256.021 267.822 256.021Z" fill="#B2B8DB"/>
<path d="M173.058 262C177.221 262 180.597 258.622 180.597 254.455C180.597 250.287 177.221 246.909 173.058 246.909C168.894 246.909 165.518 250.287 165.518 254.455C165.518 258.622 168.894 262 173.058 262Z" fill="#302454"/>
<path d="M173.058 256.021H173.406C174.739 256.021 176.363 255.151 176.363 253.816L177.465 243.775C177.465 242.44 176.363 241.337 175.029 241.337H171.086C169.752 241.337 168.65 242.44 168.65 243.775L170.39 253.874C170.332 255.209 171.724 256.021 173.058 256.021Z" fill="#B2B8DB"/>
<path d="M205.245 218.237L194.168 230.716V244.007H290.092" stroke="#B2B8DB" stroke-width="4.1726" stroke-miterlimit="10" stroke-linecap="round" stroke-linejoin="round"/>
<path d="M289.512 262C293.676 262 297.051 258.622 297.051 254.455C297.051 250.287 293.676 246.909 289.512 246.909C285.348 246.909 281.973 250.287 281.973 254.455C281.973 258.622 285.348 262 289.512 262Z" fill="#B2B8DB"/>
<path d="M289.512 256.021H289.86C291.194 256.021 292.818 255.151 292.818 253.816L293.92 243.775C293.92 242.44 292.818 241.337 291.484 241.337H287.54C286.206 241.337 285.104 242.44 285.104 243.775L286.844 253.874C286.786 255.209 288.12 256.021 289.512 256.021Z" fill="#B2B8DB"/>
<path d="M194.69 262C198.854 262 202.229 258.622 202.229 254.455C202.229 250.287 198.854 246.909 194.69 246.909C190.526 246.909 187.15 250.287 187.15 254.455C187.15 258.622 190.526 262 194.69 262Z" fill="#B2B8DB"/>
<path d="M194.69 256.021H195.038C196.372 256.021 197.996 255.151 197.996 253.816L199.097 243.775C199.097 242.44 197.996 241.337 196.662 241.337H192.718C191.384 241.337 190.282 242.44 190.282 243.775L192.022 253.874C192.022 255.209 193.356 256.021 194.69 256.021Z" fill="#B2B8DB"/>
<path d="M272.751 170.41C272.403 170.41 272.171 170.12 272.171 169.772C272.171 169.656 272.403 159.847 267.996 155.726C266.546 154.391 264.69 153.81 262.544 154.043C259.818 154.333 257.731 155.436 256.397 157.293C253.613 161.124 254.715 166.928 254.715 166.986C254.773 167.334 254.541 167.624 254.251 167.74C253.903 167.799 253.613 167.566 253.497 167.276C253.439 167.044 252.279 160.833 255.411 156.596C256.977 154.449 259.354 153.23 262.428 152.882C264.98 152.592 267.126 153.288 268.866 154.855C273.679 159.324 273.505 169.366 273.447 169.83C273.447 170.12 273.157 170.41 272.751 170.41Z" fill="#302454"/>
<path fill-rule="evenodd" clip-rule="evenodd" d="M277.739 162.981L247.523 164.548L247.349 205.99L279.247 203.204L277.739 162.981Z" fill="#5EFFE5"/>
<path fill-rule="evenodd" clip-rule="evenodd" d="M277.739 162.981L269.214 163.329L269.503 204.074L282.32 203.204L277.739 162.981Z" fill="#4FF0D6"/>
<path d="M267.184 167.392L172.014 149.457L181.699 212.142L268.46 204.887L267.184 167.392Z" stroke="#B2B8DB" stroke-width="4.1726" stroke-miterlimit="10" stroke-linecap="round" stroke-linejoin="round"/>
<path d="M296.123 165.941L267.184 167.392L268.46 204.887L296.819 202.739L296.123 165.941Z" stroke="#AAB0D1" stroke-width="4.1726" stroke-miterlimit="10" stroke-linecap="round" stroke-linejoin="round"/>
<path d="M190.688 153.752L197.532 209.298" stroke="#B2B8DB" stroke-width="4.1726" stroke-miterlimit="10" stroke-linecap="round" stroke-linejoin="round"/>
<path d="M210.812 156.771L216.902 207.731" stroke="#B2B8DB" stroke-width="4.1726" stroke-miterlimit="10" stroke-linecap="round" stroke-linejoin="round"/>
<path d="M231.459 160.659L235.924 207.034" stroke="#B2B8DB" stroke-width="4.1726" stroke-miterlimit="10" stroke-linecap="round" stroke-linejoin="round"/>
<path d="M252.047 164.548L254.715 206.048" stroke="#B2B8DB" stroke-width="4.1726" stroke-miterlimit="10" stroke-linecap="round" stroke-linejoin="round"/>
<path d="M174.565 165.941L267.416 181.496" stroke="#B2B8DB" stroke-width="4.1726" stroke-miterlimit="10" stroke-linecap="round" stroke-linejoin="round"/>
<path d="M177.929 187.648L267.822 193.917" stroke="#B2B8DB" stroke-width="4.1726" stroke-miterlimit="10" stroke-linecap="round" stroke-linejoin="round"/>
<path d="M282.668 166.638L284.524 203.552" stroke="#AAB0D1" stroke-width="4.1726" stroke-miterlimit="10" stroke-linecap="round" stroke-linejoin="round"/>
<path d="M267.88 182.077L296.123 179.697" stroke="#AAB0D1" stroke-width="4.1726" stroke-miterlimit="10" stroke-linecap="round" stroke-linejoin="round"/>
<path d="M268.228 194.44L296.471 192.06" stroke="#AAB0D1" stroke-width="4.1726" stroke-miterlimit="10" stroke-linecap="round" stroke-linejoin="round"/>
<path fill-rule="evenodd" clip-rule="evenodd" d="M147.54 89.8485C147.54 89.8485 147.192 75.28 143.306 66.6318C143.306 66.6318 148.758 79.9814 156.355 84.7989C156.355 84.7989 153.339 88.3394 147.54 89.8485Z" fill="#5F47A8"/>
<path d="M106.131 76.9634H123.182L132.577 110.628L151.541 130.013L148.41 133.902C137.912 125.66 118.252 120.901 116.222 112.659L105.377 84.9151L106.131 76.9634Z" fill="white"/>
<path d="M106.827 94.956C113.033 95.8847 119.818 93.0406 127.067 87.8749L122.138 72.668C120.572 67.9086 115.352 65.4709 110.423 67.2121L106.305 68.6632C102.303 70.0562 98.8238 70.4625 100.1 74.3512L106.827 94.956Z" fill="#7E5EE0"/>
<path fill-rule="evenodd" clip-rule="evenodd" d="M93.9521 139.184C93.9521 139.184 92.4443 100.412 95.17 88.2233C95.17 88.2233 97.4898 75.6283 99.4037 71.5654C99.4617 71.3913 104.217 77.1374 103.927 78.6465C100.622 95.8268 106.827 132.683 121.21 142.55C121.268 142.55 107.697 141.97 93.9521 139.184Z" fill="#5F47A8"/>
<path fill-rule="evenodd" clip-rule="evenodd" d="M119.934 53.5722C119.934 53.5722 106.015 53.224 99.4037 71.6232L102.999 83.3476C102.999 83.3476 105.551 62.8009 119.934 53.5722Z" fill="#5F47A8"/>
<path d="M262.834 99.2515H256.919C242.13 99.2515 230.067 87.1788 230.067 72.3782C230.067 57.5775 242.13 45.5049 256.919 45.5049H262.834C277.623 45.5049 289.686 57.5775 289.686 72.3782C289.628 87.1788 277.565 99.2515 262.834 99.2515Z" fill="#C9CFF7"/>
<path d="M247.871 65.8193H274.839" stroke="white" stroke-width="2.1411" stroke-miterlimit="10" stroke-linecap="round" stroke-linejoin="round"/>
<path d="M247.871 78.9946H274.839" stroke="white" stroke-width="2.1411" stroke-miterlimit="10" stroke-linecap="round" stroke-linejoin="round"/>
<path d="M221.773 98.0903C221.773 98.4966 224.383 104.185 226.239 108.248C226.935 109.757 229.081 109.641 229.603 108.132L233.257 98.1484H221.773V98.0903Z" fill="#CF325F"/>
<path d="M233.431 100.76H228.501C216.206 100.76 206.173 90.7192 206.173 78.4144C206.173 66.1096 216.206 56.0684 228.501 56.0684H233.431C245.726 56.0684 255.759 66.1096 255.759 78.4144C255.759 90.6612 245.726 100.76 233.431 100.76Z" fill="#CF325F"/>
<path d="M229.835 100.76H224.905C212.61 100.76 202.577 90.7192 202.577 78.4144C202.577 66.1096 212.61 56.0684 224.905 56.0684H229.835C242.13 56.0684 252.163 66.1096 252.163 78.4144C252.163 90.6612 242.13 100.76 229.835 100.76Z" fill="#EB4676"/>
<path d="M219.686 74.6998L226.297 86.076L234.996 69.4761" stroke="white" stroke-width="2.1411" stroke-miterlimit="10" stroke-linecap="round" stroke-linejoin="round"/>
</g>
<defs>
<clipPath id="clip0">
<rect width="298.037" height="262" fill="white"/>
</clipPath>
</defs>
</svg>
