<svg width="454" height="499" viewBox="0 0 454 499" fill="none" xmlns="http://www.w3.org/2000/svg">
<path d="M188.53 256.871C188.53 256.871 142.043 225.449 142.474 184.233C142.904 143.017 132.896 98.358 104.057 72.6386C75.2183 46.9191 87.0553 0 87.0553 0C87.0553 0 104.057 55.3129 152.051 76.5126C205.855 100.295 165.179 169.598 185.302 206.509C205.317 243.42 257.937 253.966 257.937 253.966L188.53 256.871Z" fill="#E6E9FF"/>
<path d="M248.791 352.539C248.791 352.539 265.793 261.069 177.877 222.436C89.9607 183.803 107.178 150.227 103.627 126.66C100.076 103.093 60.2607 75.2215 0 102.34C0 102.34 66.0716 93.3004 64.2422 159.805C63.1662 199.837 86.5172 225.664 121.49 244.066C156.463 262.468 184.979 361.256 216.831 356.844C248.683 352.432 248.791 352.539 248.791 352.539Z" fill="#E6E9FF"/>
<path fill-rule="evenodd" clip-rule="evenodd" d="M223.826 79.418C223.826 79.418 201.013 80.0636 190.252 93.9457C179.491 107.72 166.363 95.3446 160.875 109.119C155.387 122.893 161.951 147.537 188.53 142.587C215.109 137.636 238.245 148.936 242.765 137.098C247.284 125.261 237.922 90.1792 237.922 90.1792L223.826 79.418Z" fill="#282828"/>
<path fill-rule="evenodd" clip-rule="evenodd" d="M188.53 142.587C188.53 142.587 204.026 135.162 208.222 122.679C212.419 110.195 228.345 99.8647 235.878 103.523C243.41 107.182 243.626 125.692 243.626 125.692L234.694 134.946L188.53 142.587Z" fill="#282828"/>
<path fill-rule="evenodd" clip-rule="evenodd" d="M251.911 77.2659C251.911 77.2659 266.116 74.6832 267.192 90.1794C268.268 105.676 253.526 109.657 253.526 109.657L237.599 80.7095L251.911 77.2659Z" fill="#282828"/>
<path fill-rule="evenodd" clip-rule="evenodd" d="M288.283 273.874C288.283 273.874 288.391 342.961 288.498 366.206C288.498 371.156 287.637 376.106 285.808 380.733C277.092 403.44 262.78 477.37 262.78 477.37L251.158 475.433C251.481 435.508 236.846 397.521 262.78 376.214L251.158 280.546L288.283 273.874Z" fill="white"/>
<path fill-rule="evenodd" clip-rule="evenodd" d="M288.391 328.864L259.121 347.051L256.861 329.187L288.391 328.864Z" fill="#282828"/>
<path fill-rule="evenodd" clip-rule="evenodd" d="M252.665 289.371C252.665 289.371 253.31 340.702 253.525 361.579C253.633 366.852 250.19 371.587 245.132 373.201C211.989 383.855 191.758 386.545 158.077 395.907L159.476 384.07C185.625 367.928 211.128 340.917 228.56 352.324L217.369 302.499L252.665 289.371Z" fill="white"/>
<path fill-rule="evenodd" clip-rule="evenodd" d="M160.444 395.476L140.214 414.954C139.783 415.385 139.03 415.492 138.492 415.17C138.062 414.954 137.739 414.416 137.739 413.878V408.282C137.739 403.009 139.245 397.736 142.258 393.324L149.899 381.81C151.19 379.873 153.665 379.119 155.817 379.873L166.363 379.55L160.444 395.476Z" fill="#282828"/>
<path fill-rule="evenodd" clip-rule="evenodd" d="M253.203 335.967L228.13 350.495L223.826 331.447H246.746L253.203 335.967Z" fill="#282828"/>
<path fill-rule="evenodd" clip-rule="evenodd" d="M245.67 134.193L276.876 139.143L297.322 190.044L347.252 205.971L345.746 214.902C345.746 214.902 311.849 209.414 296.354 206.939C291.511 206.186 287.315 203.495 284.517 199.514C278.168 190.474 251.696 170.996 251.696 170.996L245.67 134.193Z" fill="white"/>
<path fill-rule="evenodd" clip-rule="evenodd" d="M251.911 147.537L263.964 180.144C263.964 180.144 291.188 163.249 291.188 162.495C290.543 142.91 264.394 129.889 264.394 129.889L251.911 147.537Z" fill="#FFCD85"/>
<path d="M344.777 254.181C344.885 254.181 344.993 254.181 345.1 254.074C345.746 253.751 345.961 253.105 345.638 252.46C345.531 252.244 337.46 235.026 342.087 224.373C343.594 220.821 346.392 218.454 350.481 217.163C355.538 215.548 360.058 215.871 363.932 218.024C371.895 222.543 374.477 233.735 374.477 233.843C374.585 234.488 375.231 234.919 375.876 234.704C376.522 234.596 376.952 233.95 376.737 233.305C376.63 232.766 373.832 221.037 365.008 215.979C360.596 213.396 355.431 213.073 349.62 214.903C344.885 216.409 341.549 219.315 339.827 223.512C334.77 235.134 343.056 252.782 343.379 253.536C343.701 254.074 344.239 254.289 344.777 254.181Z" fill="#282828"/>
<path fill-rule="evenodd" clip-rule="evenodd" d="M264.394 129.781C268.913 132.041 268.914 138.605 273.11 142.264C280.966 149.151 284.194 159.051 281.719 168.629C277.415 185.632 271.173 210.598 271.173 210.598C271.173 210.598 191.22 238.47 206.716 224.588C211.989 219.853 213.603 206.509 212.096 200.159C208.76 186.385 191.651 167.122 199.614 149.151C212.419 120.096 252.987 123.97 264.394 129.781Z" fill="#FFCD85"/>
<path fill-rule="evenodd" clip-rule="evenodd" d="M262.672 477.37L276.231 490.929C276.769 491.359 285.162 496.094 284.947 496.632C284.732 497.17 284.301 497.493 283.763 497.601L273.541 498.892C271.388 499.215 269.129 498.785 267.084 497.816L250.512 489.422C248.468 488.346 247.284 486.086 247.822 483.719L250.19 473.496L262.672 477.37Z" fill="#282828"/>
<path fill-rule="evenodd" clip-rule="evenodd" d="M321.964 250.737L342.087 342.639L433.554 314.337L395.676 226.417L321.964 250.737Z" fill="#7155C9"/>
<path fill-rule="evenodd" clip-rule="evenodd" d="M380.073 231.582L408.589 321.977L433.554 314.337L395.676 226.417L380.073 231.582Z" fill="#694FBA"/>
<path fill-rule="evenodd" clip-rule="evenodd" d="M355 216.732C355.538 216.086 355.861 215.333 355.861 214.472C355.861 213.611 355.538 212.858 354.893 212.32C353.171 210.705 350.803 208.446 349.082 206.724C347.898 205.648 346.069 205.648 344.885 206.831C344.132 207.692 343.163 208.661 342.302 209.522C340.796 211.136 340.903 213.611 342.41 215.118C343.917 216.624 345.853 218.346 347.36 219.745C348.006 220.391 348.866 220.713 349.835 220.713C350.696 220.713 351.557 220.283 352.202 219.637C353.063 218.776 354.139 217.7 355 216.732Z" fill="white"/>
<path fill-rule="evenodd" clip-rule="evenodd" d="M215.97 164.755L183.15 181.65C177.554 184.556 173.357 189.613 171.635 195.64L160.014 235.672L153.019 235.564C153.019 235.564 155.925 205.648 157.646 189.291C159.045 175.839 173.465 162.71 177.016 159.805C191.543 147.429 205.963 139.143 205.963 139.143L218.23 163.571L215.97 164.755Z" fill="white"/>
<path fill-rule="evenodd" clip-rule="evenodd" d="M176.908 266.234L121.382 242.667L75.1107 319.394L152.912 352.431L176.908 266.234Z" fill="#282828"/>
<path fill-rule="evenodd" clip-rule="evenodd" d="M120.199 239.653L73.4966 293.46L125.579 331.555L159.045 268.063L120.199 239.653Z" fill="#BCF3E6"/>
<path fill-rule="evenodd" clip-rule="evenodd" d="M149.253 260.961L104.057 315.736L125.579 331.555L159.045 268.063L149.253 260.961Z" fill="#00B8B8"/>
<path fill-rule="evenodd" clip-rule="evenodd" d="M227.484 92.6546C226.731 88.4577 229.529 84.3684 233.726 83.6151C238.245 82.7542 243.948 81.7857 248.468 80.9248C252.665 80.1715 256.754 82.9694 257.507 87.1663C258.691 93.4079 260.197 102.124 261.381 108.366C262.134 112.563 259.121 115.899 255.14 117.405C250.728 119.127 246.423 120.096 240.074 117.836C235.985 116.437 236.739 116.76 233.941 113.531C227.377 105.891 228.56 98.7885 227.484 92.6546Z" fill="white"/>
<path fill-rule="evenodd" clip-rule="evenodd" d="M248.683 113.316C248.683 113.316 247.499 123.539 246.531 132.041C246.316 134.301 244.809 136.238 242.765 137.099C240.72 137.959 238.245 137.637 236.523 136.238C235.985 135.807 235.34 135.377 234.802 134.946C232.327 133.009 231.143 129.889 231.896 126.875C233.618 119.127 236.739 104.922 236.739 104.922L248.683 113.316Z" fill="white"/>
<path fill-rule="evenodd" clip-rule="evenodd" d="M202.842 96.0983C202.842 96.0983 233.295 61.9851 255.247 79.526C255.247 79.526 257.615 101.264 218.553 105.245C179.491 109.119 202.842 96.0983 202.842 96.0983Z" fill="#282828"/>
<path fill-rule="evenodd" clip-rule="evenodd" d="M248.145 118.589C248.145 118.589 242.442 119.235 239.321 116.544C239.321 116.544 241.689 121.817 247.715 122.678L248.145 118.589Z" fill="#282828"/>
<path fill-rule="evenodd" clip-rule="evenodd" d="M221.889 129.781C211.451 133.009 190.682 141.618 186.27 149.581C186.27 149.581 197.892 176.377 203.918 173.902C204.671 173.579 225.547 157.76 225.547 157.76L221.889 129.781Z" fill="#FFCD85"/>
<path d="M148.822 260.207C148.93 260.207 149.145 260.1 149.253 259.992C149.576 259.669 158.184 252.029 158.615 244.603C158.722 242.021 157.969 239.869 156.247 237.931C154.633 236.21 152.696 235.456 150.544 235.672C143.227 236.317 135.371 248.37 135.049 248.908C134.726 249.446 134.833 250.092 135.371 250.415C135.909 250.737 136.555 250.63 136.878 250.092C136.985 249.984 144.41 238.47 150.759 237.824C152.266 237.716 153.557 238.254 154.633 239.438C155.925 240.837 156.57 242.559 156.463 244.496C156.14 251.06 147.962 258.378 147.854 258.378C147.423 258.808 147.316 259.454 147.746 259.884C147.962 260.207 148.392 260.315 148.822 260.207Z" fill="#282828"/>
<path d="M142.151 261.929C142.258 261.929 142.366 261.822 142.474 261.714C143.012 261.284 156.14 250.953 156.893 242.451C157.108 240.299 156.463 238.362 154.956 236.748C153.557 235.241 151.835 234.596 149.791 234.596C141.075 234.919 128.915 249.661 128.377 250.307C127.946 250.738 128.054 251.491 128.484 251.814C128.915 252.244 129.668 252.137 129.991 251.706C130.099 251.598 142.043 236.963 149.791 236.748C151.19 236.748 152.373 237.178 153.342 238.147C154.418 239.223 154.848 240.622 154.741 242.236C154.095 249.769 141.29 259.777 141.182 259.885C140.752 260.208 140.644 260.961 140.967 261.391C141.182 261.929 141.72 262.037 142.151 261.929Z" fill="#282828"/>
<path fill-rule="evenodd" clip-rule="evenodd" d="M150.652 245.034C151.297 245.572 152.158 245.787 152.912 245.68C153.772 245.572 154.526 245.142 154.956 244.496C156.463 242.559 158.4 239.976 159.906 238.147C160.875 236.856 160.659 235.026 159.368 234.058C158.507 233.304 157.431 232.551 156.463 231.798C154.741 230.506 152.266 230.829 150.975 232.443C149.683 234.165 148.069 236.21 146.778 237.824C146.24 238.577 146.025 239.438 146.132 240.299C146.24 241.16 146.67 242.021 147.424 242.559C148.5 243.42 149.683 244.281 150.652 245.034Z" fill="white"/>
<path d="M326.807 137.421C326.484 138.175 326.592 149.689 326.807 157.975C326.914 160.989 330.573 162.495 332.618 160.235L354.247 139.251L326.807 137.421Z" fill="#E6E9FF"/>
<path fill-rule="evenodd" clip-rule="evenodd" d="M213.065 199.191C213.065 199.191 177.662 246.648 190.575 280.116C206.07 320.686 219.414 334.891 224.041 344.576C224.041 344.576 279.567 325.636 302.81 328.434C302.81 328.434 293.879 270.108 293.663 268.493C288.391 227.17 272.787 210.275 272.787 210.275L213.065 199.191Z" fill="#FFCD85"/>
<path fill-rule="evenodd" clip-rule="evenodd" d="M201.551 174.117L212.204 167.123C212.204 167.123 220.382 183.91 233.403 184.986C233.403 184.986 229.636 191.873 223.826 201.128C223.826 201.128 197.677 240.084 205.855 263.866C214.033 287.649 240.182 339.518 240.182 339.518L224.041 344.576C224.041 344.576 195.525 300.455 189.929 278.286C180.89 242.667 205.747 210.383 205.747 210.383L201.551 174.117Z" fill="#FFC16B"/>
<path fill-rule="evenodd" clip-rule="evenodd" d="M235.662 106.859C235.662 109.765 233.295 112.132 230.39 112.132C227.484 112.132 225.117 109.765 225.117 106.859C225.117 103.954 227.484 101.586 230.39 101.586C233.295 101.586 235.662 103.954 235.662 106.859Z" fill="white"/>
<path d="M397.075 141.296H328.206C318.091 141.296 309.805 133.009 309.805 122.894V70.5941C309.805 60.4786 318.091 52.1924 328.206 52.1924H396.968C407.083 52.1924 415.369 60.4786 415.369 70.5941V122.894C415.476 133.009 407.19 141.296 397.075 141.296Z" fill="#E6E9FF"/>
<path d="M368.774 84.3682H366.622H359.843H336.169L345.316 108.689H359.412H366.192H380.288L382.548 103.2" stroke="#282828" stroke-width="0.8846" stroke-miterlimit="10"/>
<path d="M357.045 121.602C357.045 124.078 355 126.23 352.418 126.23C349.943 126.23 347.791 124.185 347.791 121.602C347.791 119.02 349.835 116.975 352.418 116.975C355 116.975 357.045 119.02 357.045 121.602Z" stroke="#282828" stroke-width="0.8846" stroke-miterlimit="10"/>
<path d="M377.921 121.602C377.921 124.078 375.876 126.23 373.294 126.23C370.819 126.23 368.667 124.185 368.667 121.602C368.667 119.02 370.711 116.975 373.294 116.975C375.876 116.975 377.921 119.02 377.921 121.602Z" stroke="#282828" stroke-width="0.8846" stroke-miterlimit="10"/>
<path d="M329.282 65.8589H319.49" stroke="#282828" stroke-width="0.8846" stroke-miterlimit="10"/>
<path d="M336.169 84.3684L330.681 69.6255" stroke="#282828" stroke-width="0.8846" stroke-miterlimit="10"/>
<path d="M395.461 86.6279C395.461 93.1923 390.188 98.4653 383.624 98.4653C377.06 98.4653 371.787 93.1923 371.787 86.6279C371.787 80.0635 377.06 74.7905 383.624 74.7905C390.188 74.7905 395.461 80.0635 395.461 86.6279Z" fill="#EB5757"/>
<path d="M378.459 85.4443L383.194 91.901L388.789 81.355" stroke="white" stroke-width="1.9325" stroke-miterlimit="10" stroke-linecap="round" stroke-linejoin="round"/>
<path d="M340.365 92.2241H364.9" stroke="#282828" stroke-width="0.8846" stroke-miterlimit="10"/>
<path d="M347.252 88.1348L353.171 104.922" stroke="#282828" stroke-width="0.8846" stroke-miterlimit="10"/>
<path d="M357.26 88.1348L363.178 104.922" stroke="#282828" stroke-width="0.8846" stroke-miterlimit="10"/>
<path d="M342.302 99.6494H366.73" stroke="#282828" stroke-width="0.8846" stroke-miterlimit="10"/>
<path fill-rule="evenodd" clip-rule="evenodd" d="M282.149 168.629L270.528 147.752L286.776 165.616L282.149 168.629Z" fill="#FFC16B"/>
</svg>
