<svg width="250" height="262" viewBox="0 0 250 262" fill="none" xmlns="http://www.w3.org/2000/svg">
<g clip-path="url(#clip0)">
<path d="M31.3917 254.83C12.5947 254.893 -2.02527 238.396 0.189874 219.677C4.62015 181.541 20.6324 123.862 75.8843 108.379C160.503 84.7109 175.566 57.0451 208.729 75.8908C241.893 94.8 268.032 211.935 232.843 234.969C206.641 252.228 89.4283 254.703 31.3917 254.83Z" fill="#E6E9FF"/>
<path fill-rule="evenodd" clip-rule="evenodd" d="M100.504 12.9448C100.441 10.1528 101.517 7.48779 103.479 5.52073C105.441 3.55367 108.162 2.47496 110.884 2.60186C116.263 2.79222 120.567 7.10707 120.694 12.5006C120.757 15.6099 120.883 18.9729 120.947 21.8918C121.01 23.8588 120.25 25.7624 118.795 27.2219C117.402 28.6178 115.44 29.3793 113.478 29.3158C111.643 29.2524 107.846 28.8717 106.01 28.8082C102.086 28.6813 100.757 25.7624 100.694 21.8283C100.694 19.0998 100.631 15.9271 100.504 12.9448Z" fill="white"/>
<path fill-rule="evenodd" clip-rule="evenodd" d="M127.845 41.8794L119.048 21.6377L108.668 27.8562L114.365 47.3999L127.845 41.8794Z" fill="white"/>
<path fill-rule="evenodd" clip-rule="evenodd" d="M124.934 11.6121C123.288 10.4065 123.921 6.40895 122.845 4.12461C121.769 1.84028 118.858 1.96719 114.681 0.380851C110.567 -1.20549 105.314 2.47482 105.314 2.47482C103.289 3.42663 101.517 4.56879 100.124 5.6475C98.6054 6.85312 99.0484 9.26436 100.884 9.83544C107.719 11.866 111.96 17.0057 112.149 22.4627C112.339 28.9984 122.086 24.6201 122.086 24.6201C122.086 24.6201 122.529 23.8587 124.744 21.0033C126.959 18.1479 126.579 12.8178 124.934 11.6121Z" fill="#302454"/>
<path fill-rule="evenodd" clip-rule="evenodd" d="M113.478 17.8307C113.478 19.417 112.339 20.6861 111.073 20.6861C109.744 20.6861 108.732 19.3536 108.795 17.7673C108.795 16.1809 109.934 14.9118 111.2 14.9118C112.466 14.8484 113.478 16.1809 113.478 17.8307Z" fill="white"/>
<path fill-rule="evenodd" clip-rule="evenodd" d="M46.961 50.3824L34.3663 56.5374C33.4803 56.9816 32.5309 56.474 32.2778 55.4587L26.7716 31.0925C26.5184 30.0773 27.088 28.8716 28.0374 28.4275L40.632 22.2725C41.5181 21.8283 42.4674 22.3359 42.7206 23.3512L48.2268 47.7174C48.4166 48.7326 47.847 49.9382 46.961 50.3824Z" fill="#302454"/>
<path fill-rule="evenodd" clip-rule="evenodd" d="M45.442 47.9713L34.8093 53.1745C34.1764 53.4917 33.6068 53.1744 33.4169 52.4765L28.6702 31.5368C28.5436 30.8388 28.8601 30.0773 29.493 29.7601L40.1256 24.5569C40.7585 24.2396 41.3281 24.5569 41.518 25.2549L46.2647 46.1946C46.3913 46.8925 46.0749 47.7174 45.442 47.9713Z" fill="white"/>
<path fill-rule="evenodd" clip-rule="evenodd" d="M92.7827 76.3982L49.1128 82.9339C44.8091 85.5355 39.2396 83.8857 37.0878 79.3171L27.088 45.5598L33.7967 44.7349L47.0243 68.3396L80.1881 53.9991L92.7827 76.3982Z" fill="white"/>
<path fill-rule="evenodd" clip-rule="evenodd" d="M32.4043 46.3213C32.9107 46.1944 33.3537 45.8137 33.6068 45.3695C33.86 44.9254 33.9233 44.3543 33.7967 43.8466C33.3537 42.3238 32.7208 40.2932 32.3411 38.7703C32.0246 37.7551 30.9487 37.184 29.9993 37.5013C29.3031 37.6916 28.4804 37.9454 27.7209 38.1993C26.3918 38.58 25.5691 40.0394 26.0121 41.3719C26.3918 42.7045 26.8981 44.3543 27.2779 45.6233C27.4677 46.1944 27.8475 46.7021 28.3538 46.9559C28.8601 47.2097 29.493 47.3366 30.0626 47.1462C30.6955 46.829 31.5816 46.5751 32.4043 46.3213Z" fill="white"/>
<path d="M97.2347 144.764H134.955V112.974H97.2347V144.764Z" fill="#7155C9"/>
<path fill-rule="evenodd" clip-rule="evenodd" d="M106.137 239.665L96.9598 239.855L97.2763 252.482L106.453 252.228L106.137 239.665Z" fill="white"/>
<path fill-rule="evenodd" clip-rule="evenodd" d="M83.3526 260.16C83.2893 260.541 83.4158 260.921 83.669 261.175C83.9222 261.429 87.0234 261.937 87.4031 261.937C91.2638 261.873 98.6054 261.239 103.669 261.112C104.428 261.112 105.251 260.794 105.82 260.223C106.39 259.652 106.77 258.891 106.77 258.129C106.896 255.274 106.39 251.276 106.39 251.276L97.4662 250.134C97.4662 250.134 89.4284 255.211 85.3778 256.987C83.7323 257.812 83.5424 258.447 83.3526 260.16Z" fill="#302454"/>
<path fill-rule="evenodd" clip-rule="evenodd" d="M89.9347 185.919C91.8334 168.406 92.403 118.214 92.403 118.214L123.415 121.45C121.136 144.992 117.845 167.264 108.225 181.858C119.364 194.739 109.808 230.083 109.238 241.251C109.175 242.33 108.352 243.155 107.276 243.218L97.2763 243.853C95.8206 243.916 94.6181 242.837 94.5548 241.441C93.9852 230.718 89.5549 189.282 89.9347 185.919Z" fill="#7155C9"/>
<path fill-rule="evenodd" clip-rule="evenodd" d="M108.732 176.465L104.365 179.764L108.099 181.287L108.732 176.465Z" fill="#5F47A8"/>
<path fill-rule="evenodd" clip-rule="evenodd" d="M141.959 239.093L132.845 240.045L134.111 252.609L143.288 251.657L141.959 239.093Z" fill="white"/>
<path fill-rule="evenodd" clip-rule="evenodd" d="M120.44 258.13C120.377 258.51 120.504 258.891 120.757 259.145C121.01 259.399 124.048 260.033 124.491 260.033C128.352 260.033 135.693 259.652 140.756 259.716C141.516 259.716 142.339 259.399 142.971 258.891C143.604 258.32 143.984 257.622 143.984 256.861C144.174 254.005 143.288 249.246 143.288 249.246H133.794C133.794 249.246 126.706 253.434 122.592 255.084C120.883 255.782 120.63 256.416 120.44 258.13Z" fill="#302454"/>
<path fill-rule="evenodd" clip-rule="evenodd" d="M120.504 186.935C121.01 169.294 117.782 119.229 117.782 119.229L145.376 122.148C146.136 142.898 145.187 163.139 138.415 181.541C151.072 195.818 143.668 229.512 143.984 240.68C143.984 241.758 143.225 242.647 142.212 242.837L132.339 244.233C130.946 244.424 129.617 243.472 129.427 242.012C128.035 231.225 120.377 190.298 120.504 186.935Z" fill="#7155C9"/>
<path fill-rule="evenodd" clip-rule="evenodd" d="M138.478 176.021L134.427 179.637L138.225 180.906L138.478 176.021Z" fill="#5F47A8"/>
<path fill-rule="evenodd" clip-rule="evenodd" d="M150.376 60.0275C151.452 90.1679 145.946 123.291 145.946 123.291L87.1499 123.037C87.1499 123.037 85.6309 94.229 85.5044 73.1624C85.4411 50.0018 94.6181 35.9785 104.048 35.4709C116.643 34.7095 136.579 33.6942 142.528 39.405C146.959 43.593 149.997 50.0652 150.376 60.0275Z" fill="#D0D6FF"/>
<path d="M165.946 147.974C166.009 147.974 166.072 147.974 166.135 147.911C166.515 147.784 166.705 147.403 166.579 147.022C166.515 146.895 163.098 136.235 166.579 130.334C167.718 128.367 169.553 127.161 172.021 126.717C175.123 126.146 177.717 126.654 179.806 128.24C184.11 131.476 184.806 138.202 184.806 138.266C184.869 138.646 185.186 138.964 185.565 138.9C185.945 138.837 186.262 138.519 186.198 138.139C186.198 137.822 185.439 130.715 180.629 127.161C178.224 125.321 175.249 124.75 171.768 125.385C168.92 125.892 166.768 127.352 165.376 129.699C161.579 136.108 165.123 147.086 165.249 147.53C165.376 147.784 165.629 147.974 165.946 147.974Z" fill="#302454"/>
<path fill-rule="evenodd" clip-rule="evenodd" d="M152.908 144.23L157.908 199.435L213.35 189.663L197.717 135.474L152.908 144.23Z" fill="#00C6C7"/>
<path fill-rule="evenodd" clip-rule="evenodd" d="M188.224 137.314L198.223 192.328L213.35 189.663L197.717 135.474L188.224 137.314Z" fill="#00B8B8"/>
<path fill-rule="evenodd" clip-rule="evenodd" d="M172.591 130.27C172.085 130.334 171.578 130.207 171.135 129.953C170.692 129.636 170.439 129.192 170.376 128.684C170.123 127.225 169.806 125.131 169.553 123.735C169.363 122.719 170.059 121.768 171.072 121.641C171.768 121.514 172.591 121.387 173.35 121.26C174.68 121.07 175.945 121.958 176.135 123.291C176.325 124.623 176.578 126.209 176.831 127.478C176.895 128.05 176.768 128.621 176.452 129.065C176.135 129.509 175.629 129.826 175.059 129.953C174.237 129.953 173.35 130.144 172.591 130.27Z" fill="white"/>
<path d="M156.769 49.3037L144.997 63.7711L166.895 94.9903L170.123 124.496L175.566 124.56C175.882 109.965 185.439 90.0409 179.869 82.6169L163.92 54.2531L156.769 49.3037Z" fill="white"/>
<path fill-rule="evenodd" clip-rule="evenodd" d="M139.111 37.311C139.111 37.311 162.908 42.3873 172.591 69.5455L155.882 82.1727L139.174 58.3142V37.311H139.111Z" fill="#D0D6FF"/>
<path d="M167.465 73.4162C167.465 73.4162 157.275 46.6388 139.934 37.5015C139.934 37.5015 164.047 44.2275 172.591 69.4821L167.465 73.4162Z" fill="#BEC3E8"/>
<path fill-rule="evenodd" clip-rule="evenodd" d="M119.554 150.449C119.554 150.449 129.491 147.72 130.63 143.977L119.871 156.921L119.554 150.449Z" fill="#5F47A8"/>
<path fill-rule="evenodd" clip-rule="evenodd" d="M97.4661 38.1357C97.4661 38.1357 67.2136 52.2859 62.7833 61.6136L74.8717 83.6954C74.8717 83.6954 95.4408 72.6545 95.3142 72.02C95.1244 71.322 97.4661 38.1357 97.4661 38.1357Z" fill="#D0D6FF"/>
<path fill-rule="evenodd" clip-rule="evenodd" d="M85.5676 77.8579C85.5676 77.8579 86.3904 117.263 87.1499 123.1L103.225 123.354C103.225 123.354 104.112 91.5004 95.3775 69.7993L85.5676 77.8579Z" fill="#BEC3E8"/>
</g>
<defs>
<clipPath id="clip0">
<rect width="249.615" height="262" fill="white"/>
</clipPath>
</defs>
</svg>
