<svg width="369" height="252" viewBox="0 0 369 252" fill="none" xmlns="http://www.w3.org/2000/svg">
<g clip-path="url(#clip0)">
<path d="M176.308 0H36.152V244.946H176.308V0Z" fill="#E6E9FF"/>
<path d="M176.308 244.946L93.6747 214.535V0H176.308V244.946Z" fill="#CCD0ED"/>
<path fill-rule="evenodd" clip-rule="evenodd" d="M161.823 66.0381L175.774 82.5773C175.774 82.5773 184.797 84.7706 188.655 84C192.514 83.2293 195.304 83.8221 195.304 83.8221L196.016 92.477C196.016 92.477 187.765 95.1446 184.381 95.856C180.998 96.5674 170.609 98.82 167.285 96.3895C164.495 94.374 150.544 81.036 150.544 81.036L161.823 66.0381Z" fill="#00C6C7"/>
<path fill-rule="evenodd" clip-rule="evenodd" d="M197.322 94.7295C196.373 94.0774 196.194 92.7733 196.847 91.8248L199.816 87.6752C200.469 86.7267 201.775 86.5488 202.724 87.2009C203.674 87.853 203.852 89.1572 203.199 90.1057L200.231 94.2553C199.519 95.1445 198.272 95.3816 197.322 94.7295Z" fill="white"/>
<path fill-rule="evenodd" clip-rule="evenodd" d="M160.755 74.7524C160.755 74.7524 161.764 83.4666 161.052 84.4744C160.339 85.5414 158.262 88.3276 158.262 88.3276L166.572 96.1526C166.572 96.1526 169.184 98.1088 174.764 97.3975C182.007 96.5083 186.162 95.4412 186.162 95.4412L195.66 92.7736L195.185 89.9282C195.185 89.9282 174.764 98.0495 169.481 94.9077C164.079 91.8251 160.755 74.7524 160.755 74.7524Z" fill="#00B8B8"/>
<path fill-rule="evenodd" clip-rule="evenodd" d="M254.964 55.8418C254.964 55.8418 244.338 70.4247 237.452 77.8347C214.834 102.08 227.835 101.191 227.835 101.191L252.174 79.7317L254.964 55.8418Z" fill="white"/>
<path fill-rule="evenodd" clip-rule="evenodd" d="M256.448 54.0635L239.529 72.6774L248.731 83.2886L257.279 72.6774L256.448 54.0635Z" fill="#B6BDF0"/>
<path d="M226.232 47.9576H222.077C211.748 47.9576 203.259 39.4806 203.259 29.1658C203.259 18.8511 211.748 10.374 222.077 10.374H226.232C236.561 10.374 245.05 18.8511 245.05 29.1658C245.05 39.5399 236.621 47.9576 226.232 47.9576Z" fill="#C9CFF7"/>
<path d="M215.725 24.542H234.721" stroke="white" stroke-width="1.4674" stroke-miterlimit="10" stroke-linecap="round" stroke-linejoin="round"/>
<path d="M215.725 33.7896H234.721" stroke="white" stroke-width="1.4674" stroke-miterlimit="10" stroke-linecap="round" stroke-linejoin="round"/>
<path d="M197.441 47.187C197.441 47.4834 199.281 51.4552 200.587 54.3006C201.062 55.3084 202.546 55.2491 202.962 54.1821L205.515 47.187H197.441Z" fill="#CF325F"/>
<path d="M205.633 49.0245H202.19C193.582 49.0245 186.518 41.9702 186.518 33.3746C186.518 24.7789 193.582 17.7246 202.19 17.7246H205.633C214.241 17.7246 221.305 24.7789 221.305 33.3746C221.305 41.9702 214.241 49.0245 205.633 49.0245Z" fill="#CF325F"/>
<path d="M203.081 49.0245H199.638C191.03 49.0245 183.966 41.9702 183.966 33.3746C183.966 24.7789 191.03 17.7246 199.638 17.7246H203.081C211.688 17.7246 218.752 24.7789 218.752 33.3746C218.752 41.9702 211.748 49.0245 203.081 49.0245Z" fill="#EB4676"/>
<path d="M196.016 30.7665L200.647 38.7693L206.761 27.1504" stroke="white" stroke-width="1.4674" stroke-miterlimit="10" stroke-linecap="round" stroke-linejoin="round"/>
<path d="M235.73 164.562C235.73 164.562 270.932 67.1645 332.432 61.2958C393.932 55.427 359.739 140.672 357.484 174.817C355.228 208.903 303.107 254.727 260.01 238.958C216.853 223.131 235.73 164.562 235.73 164.562Z" fill="#E6E9FF"/>
<path d="M258.077 148.068H290.786V120.622H258.077V148.068Z" fill="#7155C9"/>
<path fill-rule="evenodd" clip-rule="evenodd" d="M263.809 230.007L255.854 230.244L256.092 241.092L264.106 240.914L263.809 230.007Z" fill="white"/>
<path fill-rule="evenodd" clip-rule="evenodd" d="M244.457 248.799C244.457 249.154 244.575 249.451 244.872 249.629C245.11 249.866 247.84 249.984 248.196 249.984C251.521 249.569 257.754 248.443 262.147 247.85C262.8 247.791 263.453 247.435 263.928 246.902C264.403 246.368 264.64 245.716 264.581 245.064C264.462 242.634 264.224 239.195 264.224 239.195L255.854 239.018C255.854 239.018 249.324 244.116 246 245.953C244.575 246.724 244.457 247.317 244.457 248.799Z" fill="#302454"/>
<path fill-rule="evenodd" clip-rule="evenodd" d="M248.731 183.65C250.393 168.534 250.868 125.2 250.868 125.2L277.7 128.045C275.741 148.378 272.891 167.585 264.521 180.212C274.138 191.356 265.887 221.886 265.352 231.489C265.293 232.378 264.581 233.149 263.69 233.208L255.023 233.742C253.777 233.801 252.708 232.853 252.649 231.667C252.293 222.301 248.434 186.555 248.731 183.65Z" fill="#7155C9"/>
<path fill-rule="evenodd" clip-rule="evenodd" d="M264.996 175.528L261.256 178.314L264.462 179.678L264.996 175.528Z" fill="#5F47A8"/>
<path fill-rule="evenodd" clip-rule="evenodd" d="M275.325 148.023C274.969 148.201 269.033 147.786 269.033 147.786L274.257 153.654L275.325 148.023Z" fill="#5F47A8"/>
<path fill-rule="evenodd" clip-rule="evenodd" d="M296.874 229.533L288.919 230.363L290.047 241.211L298.002 240.381L296.874 229.533Z" fill="white"/>
<path fill-rule="evenodd" clip-rule="evenodd" d="M279.006 249.747C279.006 250.103 279.184 250.399 279.481 250.577C279.718 250.755 282.449 250.755 282.805 250.636C286.07 249.984 292.244 248.324 296.518 247.435C297.171 247.317 297.824 246.902 298.239 246.309C298.655 245.716 298.833 245.064 298.774 244.412C298.418 241.981 298.002 238.603 298.002 238.603L289.632 239.077C289.632 239.077 283.517 244.649 280.371 246.724C278.946 247.672 278.887 248.265 279.006 249.747Z" fill="#302454"/>
<path fill-rule="evenodd" clip-rule="evenodd" d="M278.234 184.539C278.709 169.304 275.86 126.089 275.86 126.089L299.783 128.579C300.436 146.481 299.605 163.969 293.728 179.856C304.71 192.186 298.299 221.293 298.536 230.896C298.536 231.785 297.883 232.615 296.993 232.734L288.445 233.979C287.198 234.157 286.07 233.267 285.951 232.082C284.764 222.775 278.175 187.444 278.234 184.539Z" fill="#7155C9"/>
<path fill-rule="evenodd" clip-rule="evenodd" d="M293.847 175.114L290.285 178.196L293.609 179.323L293.847 175.114Z" fill="#5F47A8"/>
<path fill-rule="evenodd" clip-rule="evenodd" d="M304.176 71.9069C305.185 98.5237 300.317 129.587 300.317 129.587H249.799C249.799 129.587 248.137 102.021 248.018 83.4073C247.9 62.9556 255.854 50.6253 264.046 50.1511C274.969 49.499 292.244 48.6098 297.408 53.6486C301.208 57.3833 303.82 63.0742 304.176 71.9069Z" fill="#D0D6FF"/>
<path fill-rule="evenodd" clip-rule="evenodd" d="M270.161 25.0161C270.161 25.0161 263.631 27.9801 268.736 34.086C273.841 40.1326 270.161 25.0161 270.161 25.0161Z" fill="#302454"/>
<path fill-rule="evenodd" clip-rule="evenodd" d="M268.677 29.7588C268.736 27.5654 269.745 25.5499 271.407 24.0679C273.07 22.6452 275.207 21.9338 277.403 22.1709C281.618 22.5859 284.764 26.202 284.586 30.4109C284.467 32.8413 284.408 35.5089 284.289 37.8209C284.23 39.3622 283.517 40.8442 282.33 41.8519C281.143 42.8597 279.599 43.3932 278.056 43.2154C276.631 43.0968 275.088 42.919 273.663 42.8004C270.576 42.504 268.261 39.8364 268.38 36.7538C268.499 34.6197 268.617 32.13 268.677 29.7588Z" fill="white"/>
<path fill-rule="evenodd" clip-rule="evenodd" d="M282.746 39.4805L273.307 40.5475L272.12 49.6174C271.764 52.4628 274.197 55.0712 277.403 55.1304C280.431 55.1897 282.924 53.0556 282.864 50.2695L282.746 39.4805Z" fill="white"/>
<path fill-rule="evenodd" clip-rule="evenodd" d="M280.015 28.8102C280.015 28.8102 279.006 36.0424 284.705 36.2203C284.705 36.2203 284.467 32.1299 285.061 28.8102C285.654 25.4905 276.038 18.8512 270.992 21.5188C265.887 24.1864 269.033 28.9288 280.015 28.8102Z" fill="#302454"/>
<path fill-rule="evenodd" clip-rule="evenodd" d="M283.577 33.4338C282.508 33.3153 281.558 34.3823 281.44 35.7457C281.321 37.1092 282.093 38.2948 283.161 38.3541C284.23 38.4726 285.18 37.4056 285.298 36.0421C285.417 34.6787 284.645 33.4931 283.577 33.4338Z" fill="white"/>
<path fill-rule="evenodd" clip-rule="evenodd" d="M268.38 36.7535C268.024 36.1014 266.48 46.5347 272.713 47.0682C279.006 47.6018 281.618 45.0527 282.033 33.0781C282.033 33.0781 279.54 40.3696 275.86 40.4881C268.202 40.666 268.795 37.5241 268.38 36.7535Z" fill="#302454"/>
<path fill-rule="evenodd" clip-rule="evenodd" d="M303.819 77.3608C303.819 77.3608 304.947 98.346 300.317 129.587L274.019 129.468C298.477 117.908 298.892 93.485 303.819 77.3608Z" fill="#B6BDF0"/>
<path fill-rule="evenodd" clip-rule="evenodd" d="M269.567 49.8545C269.567 49.8545 268.142 54.3598 274.435 56.0196C280.668 57.7388 285.298 49.9138 285.298 49.9138L269.567 49.8545Z" fill="white"/>
<path d="M194.234 120.863L253.122 120.863V83.3384H194.234V120.863Z" fill="#F2B55E"/>
<path d="M194.183 120.863H215.791V83.3384H194.183V120.863Z" fill="#FFD394"/>
<path d="M253.658 93.8994H216.378H194.71" stroke="#F1603C" stroke-width="0.9945" stroke-miterlimit="10"/>
<path d="M251.224 86.5488H237.452V91.9433H251.224V86.5488Z" fill="white"/>
<path fill-rule="evenodd" clip-rule="evenodd" d="M132.617 157.507C132.617 157.507 112.196 127.393 133.032 107.238L163.426 105.104C171.025 127.037 169.303 126.148 169.125 153.713L151.969 146.659H138.672L138.434 164.028L132.617 157.507Z" fill="#7155C9"/>
<path d="M130.278 230.245L123.557 228.271L119.906 240.67L126.627 242.643L130.278 230.245Z" fill="white"/>
<path d="M171.396 229.733L164.397 229.455L163.884 242.368L170.883 242.645L171.396 229.733Z" fill="white"/>
<path fill-rule="evenodd" clip-rule="evenodd" d="M169.422 131.721C169.422 131.721 175.417 171.142 177.258 182.88C177.614 185.369 177.555 187.918 177.02 190.408C174.349 202.501 173.518 234.69 173.518 234.69L162.595 234.868C159.686 214.772 151.494 202.62 162.951 189.934L149.773 142.688L167.997 136.463L169.422 131.721Z" fill="#7155C9"/>
<path fill-rule="evenodd" clip-rule="evenodd" d="M170.609 240.796L178.445 246.605C178.742 246.783 183.372 248.502 183.253 248.858C183.194 249.154 183.016 249.332 182.719 249.391L177.673 250.814C176.605 251.111 175.418 251.111 174.349 250.755L165.385 247.791C164.257 247.435 163.545 246.309 163.604 245.123L164.02 239.788L170.609 240.796Z" fill="#302454"/>
<path fill-rule="evenodd" clip-rule="evenodd" d="M150.069 138.656C150.069 138.656 148.289 173.809 147.101 185.606C146.864 188.155 146.152 190.586 145.024 192.838C139.443 203.924 129.292 235.402 129.292 235.402L118.548 231.904C120.685 211.689 117.776 198.766 131.964 189.282L125.731 140.672L150.069 138.656Z" fill="#7155C9"/>
<path fill-rule="evenodd" clip-rule="evenodd" d="M126.918 240.499L133.092 248.087C133.329 248.324 137.366 251.17 137.247 251.466C137.128 251.703 136.891 251.881 136.594 251.881L131.37 252C130.242 252.059 129.114 251.703 128.165 251.111L120.21 246.012C119.201 245.36 118.785 244.116 119.141 242.989L120.804 237.891L126.918 240.499Z" fill="#302454"/>
<path fill-rule="evenodd" clip-rule="evenodd" d="M150.841 146.659L159.449 146.007C159.449 146.007 157.49 170.43 157.43 170.252C157.371 170.075 150.841 146.659 150.841 146.659Z" fill="#5F47A8"/>
<path fill-rule="evenodd" clip-rule="evenodd" d="M144.549 106.408L133.032 107.238C121.278 118.619 122.644 133.202 126.087 143.695L131.964 189.281C117.717 198.766 120.685 211.689 118.548 231.904L118.845 232.022C120.329 226.806 126.859 204.279 130.242 201.256C134.101 197.818 141.224 191.297 137.485 175.232C133.804 159.167 126.265 130.061 132.617 120.813C136.653 115.063 141.462 109.668 144.549 106.408Z" fill="#5F47A8"/>
<path fill-rule="evenodd" clip-rule="evenodd" d="M138.612 49.2024C138.612 49.2024 143.361 44.875 147.339 45.7049C151.316 46.5348 153.216 48.6689 154.106 45.4085C154.937 42.1481 163.664 35.9237 156.956 31.5962C150.248 27.2688 146.686 33.0782 140.215 30.9441C133.745 28.81 125.315 33.1968 126.027 40.014C126.68 46.8312 116.173 51.3365 123.712 58.5094C131.251 65.6823 140.037 62.8961 144.608 58.5094C149.12 54.1227 138.612 49.2024 138.612 49.2024Z" fill="#302454"/>
<path fill-rule="evenodd" clip-rule="evenodd" d="M153.572 37.2281C153.572 37.2281 160.814 35.9239 161.408 43.8082C162.001 51.7517 154.462 53.7079 154.462 53.7079L146.33 39.0065L153.572 37.2281Z" fill="#302454"/>
<path fill-rule="evenodd" clip-rule="evenodd" d="M159.983 63.9631C162.298 65.1487 162.298 68.4684 164.435 70.3653C168.413 73.8629 169.006 83.2291 167.76 88.0901C165.563 96.745 167.047 113.996 167.047 113.996C152.503 114.885 137.425 115.063 127.987 112.158C129.708 109.016 134.16 103.029 133.389 99.8276C131.667 92.8325 123 83.0513 127.037 73.8629C133.507 59.0428 154.106 60.9991 159.983 63.9631Z" fill="#00C6C7"/>
<path fill-rule="evenodd" clip-rule="evenodd" d="M186.4 107.831C186.459 107.416 186.34 107.001 186.103 106.645C185.865 106.289 185.45 106.112 185.034 106.052C183.847 105.874 182.125 105.637 180.938 105.459C180.107 105.341 179.335 105.934 179.276 106.704C179.217 107.297 179.098 107.949 179.039 108.542C178.861 109.609 179.632 110.617 180.76 110.795C181.829 110.973 183.135 111.15 184.203 111.269C184.678 111.328 185.153 111.21 185.509 110.913C185.865 110.617 186.103 110.202 186.162 109.787C186.222 109.194 186.34 108.483 186.4 107.831Z" fill="white"/>
<path fill-rule="evenodd" clip-rule="evenodd" d="M141.106 45.0528C140.69 42.9188 142.115 40.8439 144.311 40.429C146.626 40.014 149.535 39.4805 151.791 39.0655C153.928 38.6506 156.006 40.0733 156.421 42.2667C157.015 45.4085 157.787 49.8545 158.38 53.0557C158.796 55.1897 157.252 56.9089 155.175 57.6795C152.919 58.5687 150.722 59.043 147.517 57.9166C145.439 57.2053 145.795 57.3831 144.371 55.7233C141.046 51.8108 141.699 48.1947 141.106 45.0528Z" fill="white"/>
<path fill-rule="evenodd" clip-rule="evenodd" d="M151.969 55.6046C151.969 55.6046 151.375 60.8213 150.901 65.1487C150.782 66.275 150.01 67.2828 148.942 67.757C147.873 68.2313 146.626 68.0534 145.736 67.3421C145.439 67.105 145.142 66.8678 144.846 66.69C143.599 65.7415 143.005 64.1409 143.362 62.5404C144.252 58.5686 145.855 51.3364 145.855 51.3364L151.969 55.6046Z" fill="white"/>
<path fill-rule="evenodd" clip-rule="evenodd" d="M128.58 46.7719C128.58 46.7719 144.074 29.4028 155.293 38.3541C155.293 38.3541 156.481 49.4395 136.594 51.3957C116.648 53.4113 128.58 46.7719 128.58 46.7719Z" fill="#302454"/>
<path fill-rule="evenodd" clip-rule="evenodd" d="M151.672 58.2726C151.672 58.2726 148.764 58.569 147.161 57.2056C147.161 57.2056 148.348 59.8732 151.435 60.3474L151.672 58.2726Z" fill="#302454"/>
<path fill-rule="evenodd" clip-rule="evenodd" d="M145.32 52.2853C145.32 53.7673 144.133 54.9529 142.649 54.9529C141.165 54.9529 139.978 53.7673 139.978 52.2853C139.978 50.8033 141.165 49.6177 142.649 49.6177C144.133 49.6177 145.32 50.8033 145.32 52.2853Z" fill="white"/>
<path fill-rule="evenodd" clip-rule="evenodd" d="M142.53 79.6727L152.207 95.7969C153.869 98.5238 156.599 100.48 159.686 101.191L180.404 105.815L180.582 109.372C180.582 109.372 165.266 108.839 156.896 108.483C150.01 108.186 142.887 101.31 141.284 99.6501C134.516 92.6551 129.827 85.6007 129.827 85.6007L141.877 78.5464L142.53 79.6727Z" fill="white"/>
<path fill-rule="evenodd" clip-rule="evenodd" d="M127.927 112.099C127.927 112.099 133.982 104.807 133.389 100.776C132.795 96.6861 128.818 88.9204 128.818 88.9204L134.813 83.2295C134.813 83.2295 136.06 94.1963 141.046 95.4412L166.988 113.937C156.54 114.648 146.567 114.767 137.425 113.877C137.485 113.937 130.302 113.522 127.927 112.099Z" fill="#00B8B8"/>
<path fill-rule="evenodd" clip-rule="evenodd" d="M138.791 63.4296C138.791 63.4296 145.024 76.0563 151.672 74.0408C158.321 72.0253 152.444 62.1255 152.444 62.1255H143.48L138.791 63.4296Z" fill="white"/>
<path d="M21.6081 170.015C25.4074 169.245 29.444 169.422 32.709 172.09C41.376 179.144 44.5222 182.168 44.5222 182.168L40.5449 183.59C34.4305 185.724 26.001 184.183 19.8866 182.049L21.6081 170.015Z" fill="#7155C9"/>
<path d="M36.2114 149.445C33.1839 146.363 29.3847 143.695 24.7544 142.332C24.7544 142.332 30.8094 175.291 46.3625 178.018V174.402C46.3625 165.036 42.8007 156.025 36.2114 149.445Z" fill="#7155C9"/>
<path d="M55.3856 197.581C55.3856 197.581 67.0208 179.915 87.7978 186.97L98.4831 190.645C98.4831 190.645 90.8253 191.238 86.4918 193.728C82.2177 196.158 61.4406 208.963 55.3856 197.581Z" fill="#A58AF7"/>
<path d="M49.5087 105.459C49.5087 105.459 36.8051 128.993 43.8693 141.976L46.125 148.141C46.125 148.141 59.4223 127.393 56.2761 118.441C54.3171 113.047 49.5087 105.459 49.5087 105.459Z" fill="#A58AF7"/>
<path d="M54.0203 120.576C55.3856 123.125 55.3263 126.978 54.6733 131.127C56.3948 126.385 57.404 121.643 56.2761 118.382C54.3171 112.928 49.5087 105.4 49.5087 105.4C49.5087 105.4 48.4402 107.415 47.0748 110.557C48.9744 112.869 52.2394 117.137 54.0203 120.576Z" fill="#C0ABFF"/>
<path d="M43.9287 221.944C43.6319 221.944 43.4538 221.707 43.4538 221.47C43.3944 220.225 43.4538 219.04 43.6319 217.913L45.3534 177.425C45.3534 177.129 45.5908 176.951 45.8877 176.951C46.1845 176.951 46.3626 177.188 46.3626 177.484L44.8191 212.697C48.1435 203.212 56.2168 196.928 56.3355 196.869C56.573 196.691 56.8698 196.75 57.0479 196.987C57.226 197.224 57.1666 197.521 56.9292 197.699C56.8104 197.817 46.0657 206.176 44.5817 218.032L44.4036 221.529C44.4036 221.707 44.1661 221.944 43.9287 221.944Z" fill="#5D46A6"/>
<path d="M39.7732 220.522C39.4764 220.463 39.2983 220.225 39.3577 219.87C41.7322 198.292 38.6453 150.334 38.5859 149.86C38.5859 149.563 38.764 149.267 39.0608 149.208C39.3577 149.149 39.5951 149.386 39.5951 149.741C39.6545 150.216 42.7413 198.351 40.3075 219.988C40.3075 220.285 40.07 220.522 39.7732 220.522C39.8326 220.522 39.7732 220.522 39.7732 220.522Z" fill="#5D46A6"/>
<path d="M42.0884 221.945C41.851 221.945 41.6135 221.767 41.6135 221.53C36.1521 189.993 51.5865 164.917 51.7646 164.68C51.8833 164.443 52.2395 164.384 52.4769 164.502C52.7144 164.621 52.7737 164.976 52.655 165.214C52.4769 165.451 37.28 190.17 42.682 221.352C42.7414 221.648 42.5633 221.885 42.2665 221.945C42.1478 221.945 42.0884 221.945 42.0884 221.945Z" fill="#5D46A6"/>
<path d="M40.9605 222.004C40.723 222.004 40.5449 221.885 40.4856 221.648C34.3712 202.678 33.4214 140.909 33.4214 140.316C33.4214 140.019 33.6588 139.782 33.8963 139.782C34.1931 139.782 34.4306 140.019 34.4306 140.256C34.4306 140.849 35.4397 202.501 41.4354 221.292C41.4947 221.53 41.376 221.826 41.1386 221.945C41.0198 222.004 40.9605 222.004 40.9605 222.004Z" fill="#5D46A6"/>
<path d="M62.2717 143.517C66.6052 140.019 72.0666 137.055 78.7746 135.692C78.7746 135.692 82.8113 161.894 67.4956 168.711C52.18 175.528 46.0062 177.662 46.0062 177.662L46.8373 171.379C48.262 160.412 53.7234 150.393 62.2717 143.517Z" fill="#7155C9"/>
<path d="M74.9753 136.641C76.1626 136.226 77.4686 135.929 78.7746 135.633C78.7746 135.633 82.8112 161.835 67.4956 168.652C70.5231 161.835 73.6694 155.373 74.9753 136.641Z" fill="#785BD6"/>
<path d="M42.7413 223.308C42.5039 223.308 42.2664 223.13 42.2664 222.834C39.3576 197.462 45.9469 144.821 46.0063 144.288C46.0656 143.991 46.3031 143.813 46.5405 143.873C46.8374 143.932 47.0154 144.169 46.9561 144.406C46.8967 144.94 40.3074 197.403 43.2162 222.715C43.2756 223.071 43.0975 223.308 42.7413 223.308C42.8007 223.308 42.8007 223.308 42.7413 223.308Z" fill="#5D46A6"/>
<path d="M63.8745 173.335C63.8745 173.335 77.528 167.703 82.8707 172.742C82.8707 172.742 72.0666 172.149 68.8016 175.113C65.5367 178.077 57.6414 183.65 57.6414 183.65C57.6414 183.65 55.6231 179.441 63.8745 173.335Z" fill="#A58AF7"/>
<path d="M43.6911 216.135C43.6317 216.135 43.6317 216.135 43.6911 216.135C43.3943 216.135 43.1568 215.839 43.2162 215.602C44.4034 203.568 56.7509 184.183 57.2852 183.353C57.4633 183.116 57.7601 183.057 57.9976 183.175C58.235 183.353 58.2944 183.65 58.1757 183.887C58.0569 184.065 45.4126 203.864 44.2847 215.72C44.166 215.957 43.9285 216.135 43.6911 216.135Z" fill="#5D46A6"/>
<path d="M44.2847 170.845C44.2847 170.845 35.0835 174.995 39.4763 181.279C43.8692 187.622 50.5772 192.601 50.5772 192.601C50.5772 192.601 63.6964 175.291 53.7828 170.727C47.7871 168.059 44.2847 170.845 44.2847 170.845Z" fill="#A58AF7"/>
<path d="M43.2756 172.861C43.2756 172.861 46.778 170.015 52.7737 172.801C58.9474 175.587 56.2167 183.353 53.2486 188.807C56.5136 183.472 61.0845 173.809 54.0203 170.608C48.0247 167.881 44.5222 170.667 44.5222 170.667C44.5222 170.667 39.8919 172.742 38.764 176.24C40.5449 174.105 43.2756 172.861 43.2756 172.861Z" fill="#C0ABFF"/>
<path d="M21.6081 119.686C27.6037 122.058 35.3803 126.741 36.9831 135.277C39.6544 149.682 39.6544 149.682 39.6544 149.682C39.6544 149.682 26.0603 148.378 22.8547 142.331C16.9777 131.127 18.0463 118.264 17.6307 118.264L21.6081 119.686Z" fill="#A58AF7"/>
<path d="M31.581 135.277C32.5308 140.553 35.499 146.955 35.8552 149.089C38.5859 149.801 39.6544 149.682 39.6544 149.682C39.6544 149.682 39.6544 149.682 36.9831 135.277C35.3803 126.681 27.6037 122.058 21.6081 119.686L17.6307 118.264C22.2017 120.931 30.4531 129.171 31.581 135.277Z" fill="#C0ABFF"/>
<path d="M46.8967 250.103H38.111C34.4898 250.103 31.403 247.495 30.8093 243.938L26.8914 219.633C26.7133 218.388 27.6631 217.262 28.9097 217.262H55.0888C56.3354 217.262 57.2852 218.329 57.1665 219.574L54.1983 243.701C53.7234 247.317 50.5772 250.103 46.8967 250.103Z" fill="#C9CFF7"/>
<path d="M34.7867 160.234C31.1062 159.997 24.2201 160.116 18.9961 163.673C12.4662 166.637 6.17375 174.758 0 185.725L18.2244 183.768C24.9918 182.049 34.3711 177.722 34.5492 170.608C34.668 165.332 35.0241 163.317 35.7958 161.894C36.152 161.242 35.6178 160.294 34.7867 160.234Z" fill="#A58AF7"/>
<path fill-rule="evenodd" clip-rule="evenodd" d="M239.529 108.72C239.47 108.305 239.589 107.831 239.826 107.475C240.064 107.119 240.479 106.882 240.895 106.823C242.201 106.586 243.922 106.349 245.169 106.112C246.059 105.993 246.831 106.527 247.009 107.416C247.128 108.009 247.247 108.72 247.306 109.372C247.484 110.498 246.712 111.625 245.584 111.803C244.457 111.98 243.091 112.217 241.963 112.395C241.488 112.455 241.013 112.336 240.598 112.099C240.182 111.803 239.945 111.388 239.826 110.913C239.767 110.202 239.589 109.431 239.529 108.72Z" fill="white"/>
<path fill-rule="evenodd" clip-rule="evenodd" d="M267.608 27.2097C267.608 27.2097 267.549 18.5548 277.106 19.5033C286.664 20.4518 285.18 28.8103 285.18 28.8103L267.608 27.2097Z" fill="#7155C9"/>
<path fill-rule="evenodd" clip-rule="evenodd" d="M267.608 27.2095L258.229 29.4028C258.229 29.4028 262.681 31.8926 271.467 30.2328C280.252 28.5729 280.193 28.3358 280.193 28.3358L267.608 27.2095Z" fill="#302454"/>
<path d="M166.81 93.6628L167.344 88.209C167.344 88.209 170.55 81.9846 166.335 75.9973L162.358 71.5513C162.358 71.5513 168.531 74.7524 169.422 78.6056C170.312 82.4588 168.294 95.5005 168.294 95.5005L166.81 93.6628Z" fill="#00B8B8"/>
<path d="M101.807 105.104C100.858 105.104 100.086 104.333 100.086 103.385V88.3275C100.086 87.379 100.858 86.6084 101.807 86.6084C102.757 86.6084 103.529 87.379 103.529 88.3275V103.385C103.529 104.333 102.757 105.104 101.807 105.104Z" fill="#B6BAD9"/>
<path fill-rule="evenodd" clip-rule="evenodd" d="M125.968 80.621C127.808 85.3634 127.808 86.8454 131.964 92.6548C132.676 93.6626 133.329 94.7297 133.982 95.7967C136.772 100.421 147.814 115.181 174.23 111.802C176.367 111.506 175.121 105.459 176.842 104.096C178.623 102.614 160.339 101.369 156.125 96.2709C155.887 95.9745 139.028 75.1079 139.028 75.1079L125.968 80.621Z" fill="#00C6C7"/>
<path d="M143.065 87.972L139.503 81.4512L154.106 97.5754L152.088 96.5676C148.289 94.6706 145.142 91.6474 143.065 87.972Z" fill="#00B8B8"/>
<path d="M264.106 72.9145H256.567C255.676 72.9145 254.964 72.2031 254.964 71.3139C254.964 70.4247 255.676 69.7134 256.567 69.7134H264.106C264.996 69.7134 265.709 70.4247 265.709 71.3139C265.709 72.1439 264.996 72.9145 264.106 72.9145Z" fill="white"/>
<path d="M284.111 62.8369L272.179 80.621L278.353 83.6443L284.111 62.8369Z" fill="#B6BDF0"/>
<path fill-rule="evenodd" clip-rule="evenodd" d="M293.194 51.2773C293.194 51.2773 302.514 54.2414 305.363 67.0459C307.025 74.6337 296.102 90.1059 288.088 101.132C277.819 115.241 257.695 117.849 245.525 111.269L245.169 106.111C245.169 106.111 268.736 103.207 271.289 93.8998C277.166 73.0332 293.194 51.2773 293.194 51.2773Z" fill="white"/>
<path fill-rule="evenodd" clip-rule="evenodd" d="M290.7 50.6255L275.028 79.4356L296.815 91.9438C296.815 91.9438 306.61 74.3376 306.431 69.5359C306.253 64.7934 301.682 51.5147 290.7 50.6255Z" fill="#D0D6FF"/>
</g>
<defs>
<clipPath id="clip0">
<rect width="369" height="252" fill="white"/>
</clipPath>
</defs>
</svg>
