<svg width="128" height="56" viewBox="0 0 128 56" fill="none" xmlns="http://www.w3.org/2000/svg">
<g filter="url(#filter0_d)">
<path d="M4 2H124V40C124 45.5229 119.523 50 114 50H4V2Z" fill="#EB5757"/>
</g>
<path d="M109 35H124V40C124 45.5228 119.523 50 114 50H109V35Z" fill="#EB5757"/>
<path opacity="0.2" d="M109 35H124V40C124 45.5228 119.523 50 114 50H109V35Z" fill="#282828"/>
<path d="M39.9693 27.292H44.1693V29.616H38.9333V31.156H44.1693V33.48H38.9333V36H34.3973V33.48H29.1613V31.156H34.3973V29.616H29.1613V27.292H33.3893L25.9693 16.4H30.8133L36.8053 25.164L42.8533 16.4H47.3893L39.9693 27.292ZM54.7905 23.764C57.5532 23.764 59.5878 24.3147 60.8945 25.416C62.2198 26.5173 62.8825 27.992 62.8825 29.84C62.8825 31.0347 62.5838 32.1267 61.9865 33.116C61.3892 34.0867 60.4745 34.8707 59.2425 35.468C58.0292 36.0467 56.5265 36.336 54.7345 36.336C53.3532 36.336 51.9905 36.1587 50.6465 35.804C49.3212 35.4307 48.1918 34.908 47.2585 34.236L49.0505 30.764C49.7972 31.324 50.6558 31.7627 51.6265 32.08C52.5972 32.3787 53.5958 32.528 54.6225 32.528C55.7612 32.528 56.6572 32.304 57.3105 31.856C57.9638 31.408 58.2905 30.7827 58.2905 29.98C58.2905 29.14 57.9452 28.5053 57.2545 28.076C56.5825 27.6467 55.4065 27.432 53.7265 27.432H48.7145L49.7225 16.4H61.6785V20.04H53.5025L53.1945 23.764H54.7905ZM73.1229 36.336C71.4989 36.336 70.0522 35.9347 68.7829 35.132C67.5135 34.3293 66.5149 33.172 65.7869 31.66C65.0775 30.1293 64.7229 28.3093 64.7229 26.2C64.7229 24.0907 65.0775 22.28 65.7869 20.768C66.5149 19.2373 67.5135 18.0707 68.7829 17.268C70.0522 16.4653 71.4989 16.064 73.1229 16.064C74.7469 16.064 76.1935 16.4653 77.4629 17.268C78.7322 18.0707 79.7215 19.2373 80.4309 20.768C81.1589 22.28 81.5229 24.0907 81.5229 26.2C81.5229 28.3093 81.1589 30.1293 80.4309 31.66C79.7215 33.172 78.7322 34.3293 77.4629 35.132C76.1935 35.9347 74.7469 36.336 73.1229 36.336ZM73.1229 32.5C74.3175 32.5 75.2509 31.9867 75.9229 30.96C76.6135 29.9333 76.9589 28.3467 76.9589 26.2C76.9589 24.0533 76.6135 22.4667 75.9229 21.44C75.2509 20.4133 74.3175 19.9 73.1229 19.9C71.9469 19.9 71.0135 20.4133 70.3229 21.44C69.6509 22.4667 69.3149 24.0533 69.3149 26.2C69.3149 28.3467 69.6509 29.9333 70.3229 30.96C71.0135 31.9867 71.9469 32.5 73.1229 32.5ZM92.1268 36.336C90.5028 36.336 89.0561 35.9347 87.7868 35.132C86.5174 34.3293 85.5188 33.172 84.7908 31.66C84.0814 30.1293 83.7268 28.3093 83.7268 26.2C83.7268 24.0907 84.0814 22.28 84.7908 20.768C85.5188 19.2373 86.5174 18.0707 87.7868 17.268C89.0561 16.4653 90.5028 16.064 92.1268 16.064C93.7508 16.064 95.1974 16.4653 96.4668 17.268C97.7361 18.0707 98.7254 19.2373 99.4348 20.768C100.163 22.28 100.527 24.0907 100.527 26.2C100.527 28.3093 100.163 30.1293 99.4348 31.66C98.7254 33.172 97.7361 34.3293 96.4668 35.132C95.1974 35.9347 93.7508 36.336 92.1268 36.336ZM92.1268 32.5C93.3214 32.5 94.2548 31.9867 94.9268 30.96C95.6174 29.9333 95.9628 28.3467 95.9628 26.2C95.9628 24.0533 95.6174 22.4667 94.9268 21.44C94.2548 20.4133 93.3214 19.9 92.1268 19.9C90.9508 19.9 90.0174 20.4133 89.3268 21.44C88.6548 22.4667 88.3188 24.0533 88.3188 26.2C88.3188 28.3467 88.6548 29.9333 89.3268 30.96C90.0174 31.9867 90.9508 32.5 92.1268 32.5Z" fill="white"/>
<defs>
<filter id="filter0_d" x="0" y="0" width="128" height="56" filterUnits="userSpaceOnUse" color-interpolation-filters="sRGB">
<feFlood flood-opacity="0" result="BackgroundImageFix"/>
<feColorMatrix in="SourceAlpha" type="matrix" values="0 0 0 0 0 0 0 0 0 0 0 0 0 0 0 0 0 0 127 0"/>
<feOffset dy="2"/>
<feGaussianBlur stdDeviation="2"/>
<feColorMatrix type="matrix" values="0 0 0 0 0 0 0 0 0 0 0 0 0 0 0 0 0 0 0.2 0"/>
<feBlend mode="normal" in2="BackgroundImageFix" result="effect1_dropShadow"/>
<feBlend mode="normal" in="SourceGraphic" in2="effect1_dropShadow" result="shape"/>
</filter>
</defs>
</svg>
