<svg width="117" height="36" viewBox="0 0 117 36" fill="none" xmlns="http://www.w3.org/2000/svg">
<path d="M20.4786 8.89921C20.8943 8.89921 21.2389 8.56009 21.2389 8.13892C21.2389 7.72322 20.8998 7.37863 20.4786 7.37863H18.2032C17.7875 7.37863 17.4429 7.71775 17.4429 8.13892C17.4429 8.55462 17.7821 8.89921 18.2032 8.89921H20.4786Z" fill="url(#paint0_linear)"/>
<path d="M15.9278 8.89921C16.349 8.89921 16.6881 8.56009 16.6881 8.13892C16.6881 7.72322 16.349 7.37863 15.9278 7.37863H13.6524C13.2367 7.37863 12.8921 7.71775 12.8921 8.13892C12.8921 8.55462 13.2312 8.89921 13.6524 8.89921H15.9278Z" fill="url(#paint1_linear)"/>
<path d="M25.7022 0H22.8853C22.579 0 22.3055 0.18597 22.1851 0.464926C21.31 2.54889 19.2862 3.89444 17.0272 3.89444C14.7682 3.89444 12.7444 2.54889 11.8693 0.464926C11.7489 0.18597 11.4755 0 11.1691 0H8.35225C7.93108 0 7.59196 0.339122 7.59196 0.76029V11.284C6.8262 11.5849 6.2847 12.3287 6.2847 13.1984C6.2847 14.3361 7.20908 15.266 8.34678 15.266C9.48448 15.266 10.4143 14.3416 10.4143 13.1984C10.4143 12.3287 9.87283 11.5849 9.10707 11.284V8.90469H11.3825C11.8036 8.90469 12.1428 8.56557 12.1428 8.1444C12.1428 7.7287 11.8036 7.38411 11.3825 7.38411H9.10707V1.51511H10.6823C11.8857 3.89991 14.3252 5.41502 17.0217 5.41502C19.7238 5.41502 22.1578 3.89991 23.3611 1.51511H24.9364V7.38411H22.7431C22.3219 7.38411 21.9828 7.72324 21.9828 8.1444C21.9828 8.5601 22.3219 8.90469 22.7431 8.90469H24.9364V24.5481H23.4158C22.8306 23.1314 21.2826 21.135 18.4001 21.135C18.3782 21.135 18.3563 21.135 18.3345 21.135C16.8959 19.587 14.8885 18.7064 12.7663 18.7064C9.63763 18.7064 6.81526 20.6646 5.6885 23.5362C5.52441 23.5198 5.36032 23.5088 5.19622 23.5088C2.33557 23.5143 0 25.8444 0 28.716C0 31.5876 2.33557 33.9177 5.20169 33.9177H112.572C112.873 34.6834 113.617 35.225 114.486 35.225C115.624 35.225 116.554 34.3006 116.554 33.1629C116.554 32.0252 115.63 31.0953 114.486 31.0953C113.617 31.0953 112.873 31.6368 112.572 32.4026H5.20169C3.16696 32.4026 1.51511 30.7453 1.51511 28.716C1.51511 26.6813 3.16696 25.0294 5.20169 25.0294C5.45877 25.0294 5.73226 25.0622 6.03309 25.1333C6.42144 25.2263 6.81526 24.9911 6.93012 24.6082C7.68494 22.0265 10.0861 20.227 12.7718 20.227C14.5713 20.227 16.2724 21.0201 17.432 22.4039C17.5851 22.5899 17.8203 22.6884 18.061 22.672L18.1376 22.6665C18.2251 22.661 18.3126 22.6556 18.4056 22.6556C21.3373 22.6556 22.114 25.3904 22.1469 25.4998C22.2344 25.8335 22.5352 26.0632 22.8798 26.0632H25.6967C26.1179 26.0632 26.457 25.7241 26.457 25.3029V0.76029C26.457 0.339122 26.1179 0 25.7022 0ZM8.35225 13.7509C8.05141 13.7509 7.80528 13.5047 7.80528 13.2039C7.80528 12.9031 8.05141 12.6569 8.35225 12.6569C8.65308 12.6569 8.89922 12.9031 8.89922 13.2039C8.89922 13.5047 8.65308 13.7509 8.35225 13.7509ZM114.486 32.6104C114.787 32.6104 115.033 32.8566 115.033 33.1629C115.033 33.4692 114.787 33.7098 114.486 33.7098C114.186 33.7098 113.934 33.4637 113.934 33.1629C113.934 32.862 114.186 32.6104 114.486 32.6104Z" fill="url(#paint2_linear)"/>
<defs>
<linearGradient id="paint0_linear" x1="19.3394" y1="0.439314" x2="19.3394" y2="35.1214" gradientUnits="userSpaceOnUse">
<stop stop-color="#9FD6DD"/>
<stop offset="0.1279" stop-color="#93CFDC"/>
<stop offset="0.3476" stop-color="#72B9D6"/>
<stop offset="0.6327" stop-color="#2D98CD"/>
<stop offset="0.9688" stop-color="#0072BE"/>
<stop offset="1" stop-color="#006FBC"/>
</linearGradient>
<linearGradient id="paint1_linear" x1="14.7917" y1="0.439314" x2="14.7917" y2="35.1214" gradientUnits="userSpaceOnUse">
<stop stop-color="#9FD6DD"/>
<stop offset="0.1279" stop-color="#93CFDC"/>
<stop offset="0.3476" stop-color="#72B9D6"/>
<stop offset="0.6327" stop-color="#2D98CD"/>
<stop offset="0.9688" stop-color="#0072BE"/>
<stop offset="1" stop-color="#006FBC"/>
</linearGradient>
<linearGradient id="paint2_linear" x1="58.277" y1="0.438507" x2="58.277" y2="35.1216" gradientUnits="userSpaceOnUse">
<stop stop-color="#9FD6DD"/>
<stop offset="0.1279" stop-color="#93CFDC"/>
<stop offset="0.3476" stop-color="#72B9D6"/>
<stop offset="0.6327" stop-color="#2D98CD"/>
<stop offset="0.9688" stop-color="#0072BE"/>
<stop offset="1" stop-color="#006FBC"/>
</linearGradient>
</defs>
</svg>
