<svg width="160" height="160" viewBox="0 0 160 160" fill="none" xmlns="http://www.w3.org/2000/svg">
<path d="M89.375 51.875H70.625C65.37 51.875 61.25 55.995 61.25 61.25V98.75C61.25 104.005 65.37 108.125 70.625 108.125H89.375C94.63 108.125 98.75 104.005 98.75 98.75V61.25C98.75 55.995 94.63 51.875 89.375 51.875ZM51.875 47.1875H14.0625C12.4969 47.1875 11.0322 47.9703 10.1625 49.275C9.75031 49.8975 0 64.6925 0 80C0 95.3075 9.75031 110.103 10.1625 110.725C11.0322 112.03 12.4969 112.812 14.0625 112.812H51.875C54.4659 112.812 56.5625 110.716 56.5625 108.125V51.875C56.5625 49.2841 54.4659 47.1875 51.875 47.1875ZM149.838 49.275C148.968 47.9703 147.503 47.1875 145.938 47.1875H108.125C105.534 47.1875 103.438 49.2841 103.438 51.875V108.125C103.438 110.716 105.534 112.812 108.125 112.812H145.938C147.503 112.812 148.968 112.03 149.838 110.725C150.25 110.103 160 95.3075 160 80C160 64.6925 150.25 49.8975 149.838 49.275Z" fill="url(#paint0_linear)"/>
<path d="M110.75 10.1247C110.094 9.74969 95.2812 0 80 0C64.7188 0 49.9059 9.74969 49.2497 10.1247C47.9378 11.0625 47.1875 12.4684 47.1875 14.0625V145.938C47.1875 147.531 47.9378 148.938 49.2497 149.875C49.9059 150.25 64.7188 160 80 160C95.2812 160 110.094 150.25 110.75 149.875C112.062 148.938 112.812 147.531 112.812 145.938V14.0625C112.812 12.4684 112.062 11.0625 110.75 10.1247ZM94.0625 98.75C94.0625 101.375 92.0003 103.438 89.375 103.438H70.625C67.9997 103.438 65.9375 101.375 65.9375 98.75V61.25C65.9375 58.6247 67.9997 56.5625 70.625 56.5625H89.375C92.0003 56.5625 94.0625 58.6247 94.0625 61.25V98.75Z" fill="url(#paint1_linear)"/>
<defs>
<linearGradient id="paint0_linear" x1="80" y1="112.812" x2="80" y2="47.1875" gradientUnits="userSpaceOnUse">
<stop stop-color="#9BFF9D"/>
<stop offset="0.9973" stop-color="#E2FFEA"/>
<stop offset="1" stop-color="#E2FFEA"/>
</linearGradient>
<linearGradient id="paint1_linear" x1="80" y1="160" x2="80" y2="0" gradientUnits="userSpaceOnUse">
<stop stop-color="#00B59C"/>
<stop offset="1" stop-color="#9CFFAC"/>
</linearGradient>
</defs>
</svg>
