<svg width="182" height="160" viewBox="0 0 182 160" fill="none" xmlns="http://www.w3.org/2000/svg">
<path d="M178.113 42.2642L163.019 114.717H48.3019L33.2075 42.2642H178.113Z" fill="#EA9F26"/>
<path d="M138.868 60.3774L93.585 96.6039V114.717H141.887L147.925 60.3774H138.868Z" fill="#2D85CC"/>
<path d="M163.019 114.717H129.811L131.543 93.9321L144.906 96.6038L163.019 114.717Z" fill="#EB423F"/>
<path d="M169.057 42.2641H138.868L147.925 24.1509H160L169.057 42.2641Z" fill="#FFD33A"/>
<path d="M169.057 42.2642V78.4906H147.925V60.3774H138.868V42.2642H169.057Z" fill="#FFD33A"/>
<path d="M169.057 78.4907V75.4718L147.924 60.3774L144.906 78.4907H132.83L129.811 114.717H163.019L170.566 78.4907H169.057Z" fill="#248256"/>
<path d="M150.943 12.0754H156.981C158.582 12.0754 160.118 12.7116 161.25 13.8439C162.383 14.9761 163.019 16.5119 163.019 18.1132V24.1509H144.906V18.1132C144.906 16.5119 145.542 14.9761 146.674 13.8439C147.806 12.7116 149.342 12.0754 150.943 12.0754Z" fill="#EA9F26"/>
<path d="M78.4906 96.6038V114.717H48.3019L44.5283 96.6038H78.4906Z" fill="#996046"/>
<path d="M90.566 33.2076V60.3774H36.2264L30.5498 30.5031L30.7577 30.1888C31.6687 28.819 32.9051 27.6966 34.3562 26.9218C35.8073 26.147 37.4278 25.7441 39.0728 25.7491C39.7406 25.7489 40.4067 25.8148 41.0615 25.9457C41.0615 25.8801 41.0566 25.8152 41.0566 25.7491C41.0566 18.1974 47.274 12.0756 54.9434 12.0756C57.7894 12.0636 60.5703 12.9269 62.9092 14.5483C65.2481 16.1698 67.0321 18.4711 68.0192 21.1405C69.0749 19.2188 70.7358 17.6997 72.7437 16.8193C74.7517 15.939 76.9943 15.7466 79.1229 16.2722C81.2515 16.7977 83.1468 18.0118 84.5142 19.7256C85.8817 21.4394 86.6446 23.557 86.6845 25.7491C86.6854 27.9719 85.9175 30.1265 84.5109 31.8476C85.2247 31.6897 85.9535 31.6098 86.6845 31.6095L90.566 33.2076Z" fill="#35A872"/>
<path d="M84.5283 0H132.83V42.2642H84.5283V0Z" fill="#C48669"/>
<path d="M84.5283 0H120.755V42.2642H84.5283V0Z" fill="#D49073"/>
<path d="M108.679 15.0944H96.6038C95.8032 15.0944 95.0353 14.7763 94.4692 14.2102C93.903 13.644 93.585 12.8762 93.585 12.0755C93.585 11.2749 93.903 10.507 94.4692 9.94085C95.0353 9.3747 95.8032 9.05664 96.6038 9.05664H108.679C109.48 9.05664 110.248 9.3747 110.814 9.94085C111.38 10.507 111.698 11.2749 111.698 12.0755C111.698 12.8762 111.38 13.644 110.814 14.2102C110.248 14.7763 109.48 15.0944 108.679 15.0944Z" fill="#996046"/>
<path d="M90.566 60.3774H75.4717L78.4905 78.4906H63.3962L48.3019 96.6038H44.5283L33.2075 42.2642H90.566V60.3774Z" fill="#248256"/>
<path d="M169.057 141.887H48.3019C45.1004 141.883 42.031 140.61 39.7672 138.346C37.5034 136.082 36.23 133.013 36.2264 129.811V123.773C36.23 120.572 37.5034 117.503 39.7672 115.239C42.031 112.975 45.1004 111.702 48.3019 111.698H51.3208C52.1214 111.698 52.8893 112.016 53.4554 112.582C54.0216 113.148 54.3396 113.916 54.3396 114.717C54.3396 115.518 54.0216 116.285 53.4554 116.852C52.8893 117.418 52.1214 117.736 51.3208 117.736H48.3019C46.7012 117.738 45.1666 118.374 44.0347 119.506C42.9028 120.638 42.2661 122.173 42.2642 123.773V129.811C42.2661 131.412 42.9028 132.947 44.0347 134.078C45.1666 135.21 46.7012 135.847 48.3019 135.849H169.057C169.857 135.849 170.625 136.167 171.191 136.733C171.757 137.299 172.076 138.067 172.076 138.868C172.076 139.668 171.757 140.436 171.191 141.002C170.625 141.569 169.857 141.887 169.057 141.887Z" fill="#D0D2D4"/>
<path d="M60.3774 160C67.0465 160 72.4528 154.594 72.4528 147.925C72.4528 141.255 67.0465 135.849 60.3774 135.849C53.7083 135.849 48.3019 141.255 48.3019 147.925C48.3019 154.594 53.7083 160 60.3774 160Z" fill="#7E8589"/>
<path d="M144.906 160C151.575 160 156.981 154.594 156.981 147.925C156.981 141.255 151.575 135.849 144.906 135.849C138.237 135.849 132.83 141.255 132.83 147.925C132.83 154.594 138.237 160 144.906 160Z" fill="#7E8589"/>
<path d="M60.3774 150.943C62.0447 150.943 63.3963 149.592 63.3963 147.925C63.3963 146.257 62.0447 144.906 60.3774 144.906C58.7101 144.906 57.3585 146.257 57.3585 147.925C57.3585 149.592 58.7101 150.943 60.3774 150.943Z" fill="#414649"/>
<path d="M144.906 150.943C146.573 150.943 147.925 149.592 147.925 147.925C147.925 146.257 146.573 144.906 144.906 144.906C143.238 144.906 141.887 146.257 141.887 147.925C141.887 149.592 143.238 150.943 144.906 150.943Z" fill="#414649"/>
<path d="M105.66 78.4906L99.6226 60.3774H90.566V42.2642H138.868V60.3774L117.736 78.4906H105.66Z" fill="#EB423F"/>
<path d="M180.455 40.3597C180.172 40.0115 179.815 39.7309 179.41 39.5381C179.005 39.3453 178.562 39.2453 178.113 39.2453H33.6449L27.0894 11.3838C26.9335 10.7215 26.5585 10.1313 26.0251 9.70892C25.4918 9.28651 24.8313 9.05666 24.1509 9.05664H3.01887C2.21821 9.05664 1.45035 9.3747 0.884206 9.94085C0.318058 10.507 0 11.2749 0 12.0755C0 12.8762 0.318058 13.644 0.884206 14.2102C1.45035 14.7763 2.21821 15.0944 3.01887 15.0944H21.76L45.3634 115.409C45.5193 116.071 45.8943 116.661 46.4277 117.084C46.9611 117.506 47.6215 117.736 48.3019 117.736H163.019C163.713 117.736 164.385 117.497 164.923 117.059C165.462 116.622 165.833 116.012 165.974 115.333L181.069 42.88C181.16 42.4408 181.153 41.9866 181.047 41.5506C180.94 41.1146 180.739 40.7078 180.455 40.3597ZM123.65 45.2831H147.523L146.014 57.3585H123.146L123.65 45.2831ZM87.6702 45.2831L88.1732 57.3585H65.3053L63.7959 45.2831H87.6702ZM35.0664 45.2831H57.7128L59.2223 57.3585H37.9072L35.0664 45.2831ZM39.3283 63.3963H59.977L61.4864 75.4717H42.1691L39.3283 63.3963ZM43.5902 81.5095H62.2411L63.7506 93.5849H46.4298L43.5902 81.5095ZM50.6936 111.698L47.8521 99.6227H64.5053L66.0147 111.698H50.6936ZM66.0619 63.3963H88.4257L88.9287 75.4717H67.5702L66.0619 63.3963ZM68.326 81.5095H89.1804L89.6834 93.5849H69.8343L68.326 81.5095ZM72.0996 111.698L70.5902 99.6227H89.9351L90.4381 111.698H72.0996ZM114.841 111.698H96.4804L95.9774 99.6227H115.343L114.841 111.698ZM115.595 93.5849H95.7257L95.2226 81.5095H116.098L115.595 93.5849ZM116.35 75.4717H94.9709L94.4679 63.3963H116.852L116.35 75.4717ZM117.105 57.3585H94.2162L93.7132 45.2831H117.607L117.105 57.3585ZM139.222 111.698H120.883L121.386 99.6227H140.731L139.222 111.698ZM141.486 93.5849H121.637L122.14 81.5095H142.995L141.486 93.5849ZM143.751 75.4717H122.392L122.895 63.3963H145.259L143.751 75.4717ZM160.566 111.698H145.306L146.816 99.6227H163.08L160.566 111.698ZM164.34 93.5849H147.571L149.08 81.5095H166.854L164.34 93.5849ZM168.113 75.4717H149.835L151.344 63.3963H170.627L168.113 75.4717ZM171.887 57.3585H152.099L153.608 45.2831H174.401L171.887 57.3585Z" fill="#D0D2D4"/>
</svg>
