<svg width="128" height="56" viewBox="0 0 128 56" fill="none" xmlns="http://www.w3.org/2000/svg">
<g filter="url(#filter0_d)">
<path d="M4 2H124V40C124 45.5229 119.523 50 114 50H4V2Z" fill="#EB5757"/>
</g>
<path d="M109 35H124V40C124 45.5228 119.523 50 114 50H109V35Z" fill="#EB5757"/>
<path opacity="0.2" d="M109 35H124V40C124 45.5228 119.523 50 114 50H109V35Z" fill="#282828"/>
<path d="M29.901 27.292H34.101V29.616H28.865V31.156H34.101V33.48H28.865V36H24.329V33.48H19.093V31.156H24.329V29.616H19.093V27.292H23.321L15.901 16.4H20.745L26.737 25.164L32.785 16.4H37.321L29.901 27.292ZM46.4098 16.4V36H41.8738V20.04H37.9538V16.4H46.4098ZM52.4187 30.792C53.2027 30.792 53.8467 31.044 54.3507 31.548C54.8547 32.0333 55.1067 32.6773 55.1067 33.48C55.1067 33.8533 55.06 34.2267 54.9667 34.6C54.8733 34.9733 54.668 35.5333 54.3507 36.28L52.7547 40.312H49.9827L51.2147 35.86C50.748 35.6733 50.3747 35.3747 50.0947 34.964C49.8333 34.5347 49.7027 34.04 49.7027 33.48C49.7027 32.6773 49.9547 32.0333 50.4587 31.548C50.9813 31.044 51.6347 30.792 52.4187 30.792ZM65.1873 36.336C63.5633 36.336 62.1166 35.9347 60.8473 35.132C59.578 34.3293 58.5793 33.172 57.8513 31.66C57.142 30.1293 56.7873 28.3093 56.7873 26.2C56.7873 24.0907 57.142 22.28 57.8513 20.768C58.5793 19.2373 59.578 18.0707 60.8473 17.268C62.1166 16.4653 63.5633 16.064 65.1873 16.064C66.8113 16.064 68.258 16.4653 69.5273 17.268C70.7966 18.0707 71.786 19.2373 72.4953 20.768C73.2233 22.28 73.5873 24.0907 73.5873 26.2C73.5873 28.3093 73.2233 30.1293 72.4953 31.66C71.786 33.172 70.7966 34.3293 69.5273 35.132C68.258 35.9347 66.8113 36.336 65.1873 36.336ZM65.1873 32.5C66.382 32.5 67.3153 31.9867 67.9873 30.96C68.678 29.9333 69.0233 28.3467 69.0233 26.2C69.0233 24.0533 68.678 22.4667 67.9873 21.44C67.3153 20.4133 66.382 19.9 65.1873 19.9C64.0113 19.9 63.078 20.4133 62.3873 21.44C61.7153 22.4667 61.3793 24.0533 61.3793 26.2C61.3793 28.3467 61.7153 29.9333 62.3873 30.96C63.078 31.9867 64.0113 32.5 65.1873 32.5ZM84.1912 36.336C82.5672 36.336 81.1206 35.9347 79.8512 35.132C78.5819 34.3293 77.5832 33.172 76.8552 31.66C76.1459 30.1293 75.7912 28.3093 75.7912 26.2C75.7912 24.0907 76.1459 22.28 76.8552 20.768C77.5832 19.2373 78.5819 18.0707 79.8512 17.268C81.1206 16.4653 82.5672 16.064 84.1912 16.064C85.8152 16.064 87.2619 16.4653 88.5312 17.268C89.8006 18.0707 90.7899 19.2373 91.4992 20.768C92.2272 22.28 92.5912 24.0907 92.5912 26.2C92.5912 28.3093 92.2272 30.1293 91.4992 31.66C90.7899 33.172 89.8006 34.3293 88.5312 35.132C87.2619 35.9347 85.8152 36.336 84.1912 36.336ZM84.1912 32.5C85.3859 32.5 86.3192 31.9867 86.9912 30.96C87.6819 29.9333 88.0272 28.3467 88.0272 26.2C88.0272 24.0533 87.6819 22.4667 86.9912 21.44C86.3192 20.4133 85.3859 19.9 84.1912 19.9C83.0152 19.9 82.0819 20.4133 81.3912 21.44C80.7192 22.4667 80.3832 24.0533 80.3832 26.2C80.3832 28.3467 80.7192 29.9333 81.3912 30.96C82.0819 31.9867 83.0152 32.5 84.1912 32.5ZM103.195 36.336C101.571 36.336 100.124 35.9347 98.8551 35.132C97.5858 34.3293 96.5871 33.172 95.8591 31.66C95.1498 30.1293 94.7951 28.3093 94.7951 26.2C94.7951 24.0907 95.1498 22.28 95.8591 20.768C96.5871 19.2373 97.5858 18.0707 98.8551 17.268C100.124 16.4653 101.571 16.064 103.195 16.064C104.819 16.064 106.266 16.4653 107.535 17.268C108.804 18.0707 109.794 19.2373 110.503 20.768C111.231 22.28 111.595 24.0907 111.595 26.2C111.595 28.3093 111.231 30.1293 110.503 31.66C109.794 33.172 108.804 34.3293 107.535 35.132C106.266 35.9347 104.819 36.336 103.195 36.336ZM103.195 32.5C104.39 32.5 105.323 31.9867 105.995 30.96C106.686 29.9333 107.031 28.3467 107.031 26.2C107.031 24.0533 106.686 22.4667 105.995 21.44C105.323 20.4133 104.39 19.9 103.195 19.9C102.019 19.9 101.086 20.4133 100.395 21.44C99.7231 22.4667 99.3871 24.0533 99.3871 26.2C99.3871 28.3467 99.7231 29.9333 100.395 30.96C101.086 31.9867 102.019 32.5 103.195 32.5Z" fill="white"/>
<defs>
<filter id="filter0_d" x="0" y="0" width="128" height="56" filterUnits="userSpaceOnUse" color-interpolation-filters="sRGB">
<feFlood flood-opacity="0" result="BackgroundImageFix"/>
<feColorMatrix in="SourceAlpha" type="matrix" values="0 0 0 0 0 0 0 0 0 0 0 0 0 0 0 0 0 0 127 0"/>
<feOffset dy="2"/>
<feGaussianBlur stdDeviation="2"/>
<feColorMatrix type="matrix" values="0 0 0 0 0 0 0 0 0 0 0 0 0 0 0 0 0 0 0.2 0"/>
<feBlend mode="normal" in2="BackgroundImageFix" result="effect1_dropShadow"/>
<feBlend mode="normal" in="SourceGraphic" in2="effect1_dropShadow" result="shape"/>
</filter>
</defs>
</svg>
