<svg width="160" height="160" viewBox="0 0 160 160" fill="none" xmlns="http://www.w3.org/2000/svg">
<path d="M160 56.5625V65.9375L150.625 70.625H84.375L65.625 65.9375L75 56.5625L84.375 51.875H150.625L160 56.5625Z" fill="#5ECEF4"/>
<path d="M160 56.5625V65.9375L150.625 70.625H117.5V51.875H150.625L160 56.5625Z" fill="#4895FF"/>
<path d="M160 65.9375V160H75L70.3125 151.844V65.9375H160Z" fill="#516373"/>
<path d="M75 0H160V56.5625H75V0Z" fill="#516373"/>
<path d="M117.5 0H160V56.5625H117.5V0Z" fill="#3E4D59"/>
<path d="M117.5 65.9375H160V160H117.5V65.9375Z" fill="#3E4D59"/>
<path d="M131.562 19.0625H140.938V47.1875H131.562V19.0625Z" fill="#242833"/>
<path d="M131.562 75.3125H140.938V103.438H131.562V75.3125Z" fill="#242833"/>
<path d="M0 56.5625H75V160H0V56.5625Z" fill="#EDF5FF"/>
<path d="M37.5 56.5625H75V160H37.5V56.5625Z" fill="#D5E8FE"/>
<path d="M14.0625 75.3125H23.4375V84.6875H14.0625V75.3125Z" fill="#5ECEF4"/>
<path d="M51.5625 75.3125H60.9375V84.6875H51.5625V75.3125Z" fill="#FF435B"/>
<path d="M37.5 94.0625C24.5625 94.0625 14.0625 104.562 14.0625 117.5C14.0625 130.438 24.5625 140.938 37.5 140.938C50.4375 140.938 60.9375 130.438 60.9375 117.5C60.9375 104.562 50.4375 94.0625 37.5 94.0625Z" fill="#3E4D59"/>
<path d="M60.9375 117.5C60.9375 130.438 50.4375 140.938 37.5 140.938V94.0625C50.4375 94.0625 60.9375 104.562 60.9375 117.5Z" fill="#242833"/>
<path d="M37.5 103.438C29.7184 103.438 23.4375 109.718 23.4375 117.5C23.4375 125.281 29.7184 131.562 37.5 131.562C45.2816 131.562 51.5625 125.281 51.5625 117.5C51.5625 109.718 45.2816 103.438 37.5 103.438Z" fill="#5ECEF4"/>
<path d="M51.5625 117.5C51.5625 125.281 45.2816 131.562 37.5 131.562V103.438C45.2816 103.438 51.5625 109.718 51.5625 117.5Z" fill="#4895FF"/>
</svg>
