<svg width="128" height="56" viewBox="0 0 128 56" fill="none" xmlns="http://www.w3.org/2000/svg">
<g filter="url(#filter0_d)">
<path d="M4 2H124V40C124 45.5229 119.523 50 114 50H4V2Z" fill="#EB5757"/>
</g>
<path d="M109 35H124V40C124 45.5228 119.523 50 114 50H109V35Z" fill="#EB5757"/>
<path opacity="0.2" d="M109 35H124V40C124 45.5228 119.523 50 114 50H109V35Z" fill="#282828"/>
<path d="M26.9127 27.292H31.1127V29.616H25.8767V31.156H31.1127V33.48H25.8767V36H21.3407V33.48H16.1047V31.156H21.3407V29.616H16.1047V27.292H20.3327L12.9127 16.4H17.7567L23.7487 25.164L29.7967 16.4H34.3327L26.9127 27.292ZM49.6579 32.304V36H34.8459V33.06L42.4059 25.92C43.2085 25.1547 43.7499 24.5013 44.0299 23.96C44.3099 23.4 44.4499 22.8493 44.4499 22.308C44.4499 21.524 44.1792 20.9267 43.6379 20.516C43.1152 20.0867 42.3405 19.872 41.3139 19.872C40.4552 19.872 39.6805 20.04 38.9899 20.376C38.2992 20.6933 37.7205 21.1787 37.2539 21.832L33.9499 19.704C34.7152 18.5653 35.7699 17.6787 37.1139 17.044C38.4579 16.3907 39.9979 16.064 41.7339 16.064C43.1899 16.064 44.4592 16.3067 45.5419 16.792C46.6432 17.2587 47.4925 17.9307 48.0899 18.808C48.7059 19.6667 49.0139 20.684 49.0139 21.86C49.0139 22.924 48.7899 23.9227 48.3419 24.856C47.8939 25.7893 47.0259 26.8533 45.7379 28.048L41.2299 32.304H49.6579ZM54.4069 30.792C55.1909 30.792 55.8349 31.044 56.3389 31.548C56.8429 32.0333 57.0949 32.6773 57.0949 33.48C57.0949 33.8533 57.0483 34.2267 56.9549 34.6C56.8616 34.9733 56.6563 35.5333 56.3389 36.28L54.7429 40.312H51.9709L53.2029 35.86C52.7363 35.6733 52.3629 35.3747 52.0829 34.964C51.8216 34.5347 51.6909 34.04 51.6909 33.48C51.6909 32.6773 51.9429 32.0333 52.4469 31.548C52.9696 31.044 53.6229 30.792 54.4069 30.792ZM67.1756 36.336C65.5516 36.336 64.1049 35.9347 62.8356 35.132C61.5663 34.3293 60.5676 33.172 59.8396 31.66C59.1303 30.1293 58.7756 28.3093 58.7756 26.2C58.7756 24.0907 59.1303 22.28 59.8396 20.768C60.5676 19.2373 61.5663 18.0707 62.8356 17.268C64.1049 16.4653 65.5516 16.064 67.1756 16.064C68.7996 16.064 70.2463 16.4653 71.5156 17.268C72.7849 18.0707 73.7743 19.2373 74.4836 20.768C75.2116 22.28 75.5756 24.0907 75.5756 26.2C75.5756 28.3093 75.2116 30.1293 74.4836 31.66C73.7743 33.172 72.7849 34.3293 71.5156 35.132C70.2463 35.9347 68.7996 36.336 67.1756 36.336ZM67.1756 32.5C68.3703 32.5 69.3036 31.9867 69.9756 30.96C70.6663 29.9333 71.0116 28.3467 71.0116 26.2C71.0116 24.0533 70.6663 22.4667 69.9756 21.44C69.3036 20.4133 68.3703 19.9 67.1756 19.9C65.9996 19.9 65.0663 20.4133 64.3756 21.44C63.7036 22.4667 63.3676 24.0533 63.3676 26.2C63.3676 28.3467 63.7036 29.9333 64.3756 30.96C65.0663 31.9867 65.9996 32.5 67.1756 32.5ZM86.1795 36.336C84.5555 36.336 83.1088 35.9347 81.8395 35.132C80.5702 34.3293 79.5715 33.172 78.8435 31.66C78.1342 30.1293 77.7795 28.3093 77.7795 26.2C77.7795 24.0907 78.1342 22.28 78.8435 20.768C79.5715 19.2373 80.5702 18.0707 81.8395 17.268C83.1088 16.4653 84.5555 16.064 86.1795 16.064C87.8035 16.064 89.2502 16.4653 90.5195 17.268C91.7888 18.0707 92.7782 19.2373 93.4875 20.768C94.2155 22.28 94.5795 24.0907 94.5795 26.2C94.5795 28.3093 94.2155 30.1293 93.4875 31.66C92.7782 33.172 91.7888 34.3293 90.5195 35.132C89.2502 35.9347 87.8035 36.336 86.1795 36.336ZM86.1795 32.5C87.3742 32.5 88.3075 31.9867 88.9795 30.96C89.6702 29.9333 90.0155 28.3467 90.0155 26.2C90.0155 24.0533 89.6702 22.4667 88.9795 21.44C88.3075 20.4133 87.3742 19.9 86.1795 19.9C85.0035 19.9 84.0702 20.4133 83.3795 21.44C82.7075 22.4667 82.3715 24.0533 82.3715 26.2C82.3715 28.3467 82.7075 29.9333 83.3795 30.96C84.0702 31.9867 85.0035 32.5 86.1795 32.5ZM105.183 36.336C103.559 36.336 102.113 35.9347 100.843 35.132C99.5741 34.3293 98.5754 33.172 97.8474 31.66C97.1381 30.1293 96.7834 28.3093 96.7834 26.2C96.7834 24.0907 97.1381 22.28 97.8474 20.768C98.5754 19.2373 99.5741 18.0707 100.843 17.268C102.113 16.4653 103.559 16.064 105.183 16.064C106.807 16.064 108.254 16.4653 109.523 17.268C110.793 18.0707 111.782 19.2373 112.491 20.768C113.219 22.28 113.583 24.0907 113.583 26.2C113.583 28.3093 113.219 30.1293 112.491 31.66C111.782 33.172 110.793 34.3293 109.523 35.132C108.254 35.9347 106.807 36.336 105.183 36.336ZM105.183 32.5C106.378 32.5 107.311 31.9867 107.983 30.96C108.674 29.9333 109.019 28.3467 109.019 26.2C109.019 24.0533 108.674 22.4667 107.983 21.44C107.311 20.4133 106.378 19.9 105.183 19.9C104.007 19.9 103.074 20.4133 102.383 21.44C101.711 22.4667 101.375 24.0533 101.375 26.2C101.375 28.3467 101.711 29.9333 102.383 30.96C103.074 31.9867 104.007 32.5 105.183 32.5Z" fill="white"/>
<defs>
<filter id="filter0_d" x="0" y="0" width="128" height="56" filterUnits="userSpaceOnUse" color-interpolation-filters="sRGB">
<feFlood flood-opacity="0" result="BackgroundImageFix"/>
<feColorMatrix in="SourceAlpha" type="matrix" values="0 0 0 0 0 0 0 0 0 0 0 0 0 0 0 0 0 0 127 0"/>
<feOffset dy="2"/>
<feGaussianBlur stdDeviation="2"/>
<feColorMatrix type="matrix" values="0 0 0 0 0 0 0 0 0 0 0 0 0 0 0 0 0 0 0.2 0"/>
<feBlend mode="normal" in2="BackgroundImageFix" result="effect1_dropShadow"/>
<feBlend mode="normal" in="SourceGraphic" in2="effect1_dropShadow" result="shape"/>
</filter>
</defs>
</svg>
