<svg width="160" height="160" viewBox="0 0 160 160" fill="none" xmlns="http://www.w3.org/2000/svg">
<path d="M0 33.105H11.0344V160H0V33.105Z" fill="#995023"/>
<path d="M148.964 33.105H159.998V160H148.964V33.105Z" fill="#995023"/>
<path d="M11.0343 44.1392H148.964V55.1735H11.0343V44.1392Z" fill="#8F4B20"/>
<path d="M44.1375 107.668V42.3652C44.1065 38.7204 44.9793 35.124 46.6778 31.8966C49.2842 27.0368 52.4132 23.7259 52.4132 17.9326C52.4132 13.1334 50.4898 8.53346 47.0712 5.16335C43.6539 1.79324 39.0271 -0.06558 34.2278 0.00176835C32.0552 0.0394834 29.9094 0.486677 27.9025 1.32045L36.6699 10.0879C37.7461 11.1654 37.7461 12.9111 36.6699 13.9887L30.8186 19.8399C30.3014 20.3571 29.5996 20.6481 28.8669 20.6481C28.1341 20.6481 27.4324 20.3571 26.9151 19.8399L18.0494 10.9755C16.9503 13.4566 16.4465 16.16 16.5758 18.8714C17.1456 22.7898 18.6798 26.5061 21.0397 29.6876C23.4427 33.3823 24.7559 37.6805 24.8273 42.0878V107.668C18.1141 111.956 15.0362 120.159 17.2708 127.806C19.5055 135.451 26.5164 140.707 34.4824 140.707C42.4484 140.707 49.458 135.451 51.6926 127.806C53.9272 120.159 50.8494 111.956 44.1375 107.668ZM38.7051 129.655H30.4294L26.2915 122.759L30.4294 115.863H38.7051L42.843 122.759L38.7051 129.655Z" fill="#C4C4C2"/>
<path d="M31.5527 38.6221H37.0699V107.587H31.5527V38.6221Z" fill="#A6A6A4"/>
<path d="M74.4817 66.2079H63.4473V19.3118L60.6887 11.0361L63.4473 0.00170898H74.4817L77.2403 11.0361L74.4817 19.3118V66.2079Z" fill="#C4C4C2"/>
<path d="M55.1718 66.208V77.2424H60.6889L55.1718 88.2767V137.931C55.1718 145.55 61.3463 151.724 68.9647 151.724C76.5818 151.724 82.7576 145.55 82.7576 137.931V88.2767L77.2405 77.2424H82.7576V66.208H55.1718Z" fill="#7EA633"/>
<path d="M11.0343 88.2766H148.964V160H11.0343V88.2766Z" fill="#995023"/>
<path d="M93.7922 0.00170898H115.861V88.2766H93.7922V0.00170898Z" fill="#FDB62F"/>
<path d="M93.792 8.27734H104.826V13.7946H93.792V8.27734Z" fill="#FD882F"/>
<path d="M93.792 19.3115H104.826V24.8288H93.792V19.3115Z" fill="#FD882F"/>
<path d="M93.792 30.3462H104.826V35.8634H93.792V30.3462Z" fill="#FD882F"/>
<path d="M93.792 41.3809H104.826V46.8981H93.792V41.3809Z" fill="#FD882F"/>
<path d="M93.792 52.415H104.826V57.9323H93.792V52.415Z" fill="#FD882F"/>
<path d="M93.792 63.4492H104.826V68.9665H93.792V63.4492Z" fill="#FD882F"/>
<path d="M93.792 74.4834H104.826V80.0006H93.792V74.4834Z" fill="#FD882F"/>
<path d="M132.412 13.7947L129.101 22.0705H135.722L132.412 13.7947Z" fill="#7A3E1A"/>
<path d="M129.101 22.0706L126.895 27.5877V88.2767H137.929V27.5877L135.722 22.0706H129.101Z" fill="#DD4A43"/>
<path d="M11.0343 143.264V160H148.964V92.5088C105.4 115.378 59.0294 132.442 11.0343 143.264Z" fill="#8F4B20"/>
<path d="M11.0343 88.2766H16.5515V160H11.0343V88.2766Z" fill="#7A3E1A"/>
<path d="M143.447 88.2766H148.964V160H143.447V88.2766Z" fill="#7A3E1A"/>
<path d="M11.0343 44.1392H16.5515V55.1736H11.0343V44.1392Z" fill="#7A3E1A"/>
<path d="M143.447 44.1392H148.964V55.1736H143.447V44.1392Z" fill="#7A3E1A"/>
</svg>
