<svg width="160" height="160" viewBox="0 0 160 160" fill="none" xmlns="http://www.w3.org/2000/svg">
<path d="M80 153.125C122.284 153.125 156.562 118.847 156.562 76.5625C156.562 34.2782 122.284 0 80 0C37.7157 0 3.4375 34.2782 3.4375 76.5625C3.4375 118.847 37.7157 153.125 80 153.125Z" fill="#D7DBE2"/>
<path d="M80 118.75C111.066 118.75 136.25 93.566 136.25 62.5C136.25 31.434 111.066 6.25 80 6.25C48.934 6.25 23.75 31.434 23.75 62.5C23.75 93.566 48.934 118.75 80 118.75Z" fill="#E6EBF4"/>
<path d="M57.8841 56.36C61.9241 56.36 65.1991 53.0849 65.1991 49.045C65.1991 45.005 61.9241 41.73 57.8841 41.73C53.8441 41.73 50.5691 45.005 50.5691 49.045C50.5691 53.0849 53.8441 56.36 57.8841 56.36Z" fill="#9E2B1B"/>
<path d="M99.9603 61.4678C105.127 61.4678 109.315 57.2794 109.315 52.1128C109.315 46.9462 105.127 42.7578 99.9603 42.7578C94.7937 42.7578 90.6053 46.9462 90.6053 52.1128C90.6053 57.2794 94.7937 61.4678 99.9603 61.4678Z" fill="#9E2B1B"/>
<path d="M132.735 64.5893C132.258 64.5893 131.793 64.6383 131.341 64.7255C129.369 55.8349 121.442 49.1846 111.958 49.1846C100.99 49.1846 92.0984 58.0761 92.0984 69.0443C92.0984 80.0124 100.99 88.9039 111.958 88.9039C119.528 88.9039 126.107 84.6677 129.458 78.4374C130.445 78.9333 131.555 79.2193 132.735 79.2193C136.775 79.2193 140.05 75.9443 140.05 71.9043C140.05 67.8643 136.775 64.5893 132.735 64.5893Z" fill="#B53921"/>
<path d="M50.041 47.3677C43.7203 47.3677 38.5963 52.4917 38.5963 58.8124C38.5963 59.3439 38.6356 59.8661 38.7056 60.3786C37.5188 60.0777 36.276 59.9164 34.9953 59.9164C26.686 59.9164 19.9497 66.6527 19.9497 74.9621C19.9497 83.2714 26.686 90.0077 34.9953 90.0077C43.3047 90.0077 50.041 83.2714 50.041 74.9621C50.041 73.308 49.77 71.7177 49.2769 70.2289C49.5297 70.2455 49.7838 70.2571 50.041 70.2571C56.3619 70.2571 61.4856 65.133 61.4856 58.8124C61.4856 52.4917 56.3619 47.3677 50.041 47.3677Z" fill="#C64928"/>
<path d="M103.052 88.9038C111.361 88.9038 118.097 82.1676 118.097 73.8581C118.097 65.5487 111.361 58.8125 103.052 58.8125C94.7421 58.8125 88.006 65.5487 88.006 73.8581C88.006 82.1676 94.7421 88.9038 103.052 88.9038Z" fill="#C64928"/>
<path d="M79.4075 37.2197C67.4822 37.2197 57.8147 46.8872 57.8147 58.8125C57.8147 58.8607 57.8181 58.9079 57.8185 58.956C57.1463 58.8641 56.461 58.8125 55.7638 58.8125C47.4544 58.8125 40.7181 65.5488 40.7181 73.8582C40.7181 82.1675 47.4544 88.9038 55.7638 88.9038C62.5206 88.9038 68.2372 84.4494 70.1372 78.3169C72.9463 79.6544 76.0891 80.405 79.4075 80.405C91.3328 80.405 101 70.7375 101 58.8122C101 46.8869 91.3328 37.2197 79.4075 37.2197Z" fill="#D85F35"/>
<path d="M140.938 85.9375L155.312 150.625L80 155.312L4.6875 150.625L19.0625 85.9375L80 81.25L140.938 85.9375Z" fill="#1BAFEA"/>
<path d="M36.8253 150.625L51.2003 85.9374L51.6309 83.4321L19.0625 85.9374L4.6875 150.625L80 155.312L96.0688 154.312L36.8253 150.625Z" fill="#0596D6"/>
<path d="M155.312 160H4.6875C2.09875 160 0 157.901 0 155.312C0 152.724 2.09875 150.625 4.6875 150.625H155.312C157.901 150.625 160 152.724 160 155.312C160 157.901 157.901 160 155.312 160Z" fill="#64D2FF"/>
<path d="M140.938 85.9375H19.0625C16.4737 85.9375 14.375 83.8387 14.375 81.25C14.375 78.6612 16.4737 76.5625 19.0625 76.5625H140.938C143.526 76.5625 145.625 78.6612 145.625 81.25C145.625 83.8387 143.526 85.9375 140.938 85.9375Z" fill="#64D2FF"/>
<path d="M32.1378 155.312C32.1378 152.724 34.2366 150.625 36.8253 150.625H4.6875C2.09875 150.625 0 152.724 0 155.312C0 157.901 2.09875 160 4.6875 160H36.8253C34.2363 160 32.1378 157.901 32.1378 155.312Z" fill="#1BAFEA"/>
<path d="M46.5128 81.25C46.5128 78.6612 48.6116 76.5625 51.2003 76.5625H19.0625C16.4737 76.5625 14.375 78.6612 14.375 81.25C14.375 83.8387 16.4737 85.9375 19.0625 85.9375H51.2003C48.6113 85.9375 46.5128 83.8387 46.5128 81.25Z" fill="#1BAFEA"/>
<path d="M40.8594 123.193C40.3078 124.536 40.0185 126.014 40.0553 127.564C40.1872 133.123 44.6344 137.759 50.185 138.103C55.9144 138.459 60.7585 134.355 61.5778 128.931C61.7503 127.789 62.2344 126.717 63.0138 125.864C64.1125 124.662 65.666 123.977 67.2944 123.977H92.6475C94.276 123.977 95.8291 124.662 96.9281 125.864C97.7078 126.716 98.1916 127.789 98.3641 128.931C99.1835 134.355 104.028 138.459 109.757 138.103C115.308 137.759 119.755 133.123 119.887 127.564C119.923 126.013 119.634 124.534 119.082 123.191C117.772 120.005 117.869 116.44 119.136 113.237C120.233 110.462 120.215 107.126 118.532 103.777C117.684 102.09 116.322 100.701 114.64 99.8406C106.993 95.9278 99.3741 100.732 98.3569 107.68C98.1922 108.806 97.6972 109.857 96.9294 110.697L96.9281 110.698C95.8294 111.9 94.276 112.585 92.6475 112.585H67.2944C65.666 112.585 64.1128 111.9 63.0138 110.698C62.2341 109.846 61.7503 108.773 61.5778 107.631C60.7585 102.207 55.9144 98.1031 50.185 98.459C44.6344 98.8037 40.1869 103.439 40.055 108.998C40.0181 110.548 40.3075 112.027 40.8594 113.369C42.15 116.511 42.15 120.052 40.8594 123.193Z" fill="#F9F0E1"/>
<path d="M40.0553 108.999C40.0188 110.549 40.3081 112.027 40.8597 113.369C42.1503 116.511 42.15 120.052 40.8597 123.193C40.3081 124.536 40.0188 126.013 40.0556 127.563C40.0563 122.286 47.8047 123.447 47.8047 118.281C47.8044 113.116 40.056 114.277 40.0553 108.999Z" fill="#F0E2C5"/>
<path d="M119.887 127.564C119.923 126.014 119.634 124.536 119.082 123.193C117.792 120.052 117.792 116.511 119.082 113.37C119.634 112.027 119.923 110.549 119.887 109C119.886 114.277 112.137 113.116 112.137 118.282C112.138 123.447 119.886 122.286 119.887 127.564Z" fill="#F0E2C5"/>
<path d="M50.1851 138.103C55.9197 138.46 60.7679 134.348 61.5804 128.916C61.6397 128.518 61.7126 128.121 61.8563 127.745C62.7551 125.401 64.9466 123.978 67.2944 123.978H92.6476C94.9957 123.978 97.1879 125.401 98.086 127.747C98.2297 128.122 98.3022 128.519 98.3619 128.917C99.1751 134.348 104.023 138.46 109.757 138.103C104.134 137.962 104.128 132.763 104.627 127.677C105.119 122.647 101.188 118.281 96.1341 118.281H79.971H63.7013C58.736 118.281 54.8144 122.503 55.1894 127.454C55.5832 132.648 55.5744 138.024 50.1851 138.103Z" fill="#F0E2C5"/>
</svg>
