<svg width="141" height="160" viewBox="0 0 141 160" fill="none" xmlns="http://www.w3.org/2000/svg">
<path d="M140.351 98.2456C140.351 106.667 136.081 111.095 136.081 122.484C136.081 133.874 140.351 134.737 140.351 143.158C140.351 151.579 137.544 160 131.93 160C126.316 160 123.509 154.386 123.509 154.386C123.509 154.386 120.702 160 115.088 160C109.474 160 106.667 154.386 106.667 154.386C106.667 154.386 103.86 160 98.2456 160C97.7981 160.002 97.3522 159.945 96.9193 159.831C92.1895 158.614 89.8246 150.888 89.8246 143.158C89.8246 134.737 94.0948 133.874 94.0948 122.484C94.0948 111.095 89.8246 106.667 89.8246 98.2456V58.9473C89.8246 52.8631 92.4176 47.9649 95.8737 42.1193C97.2 39.8772 98.6527 37.4912 100.137 34.8491C105.484 25.3193 109.474 11.228 109.474 11.228V5.61401H120.702V11.228C120.702 11.228 124.691 25.3193 130.039 34.8491C135.386 44.3789 140.351 50.5263 140.351 58.9473V98.2456Z" fill="#F8BC1E"/>
<path d="M106.667 0H123.509V11.2281H106.667V0Z" fill="#F79726"/>
<path d="M98.9228 110.06C97.8211 113.723 96.7825 117.183 96.7825 122.484C96.7825 127.526 97.6983 129.807 98.7579 132.449C99.8316 135.137 101.053 138.183 101.053 143.158C101.053 150.109 99.5404 155.877 96.9193 159.832C92.1895 158.614 89.8246 150.888 89.8246 143.158C89.8246 134.737 94.0948 133.874 94.0948 122.484C94.0948 111.095 89.8246 106.667 89.8246 98.2457V58.9475C89.8246 52.8632 92.4176 47.965 95.8737 42.1194C98.8456 47.4211 101.053 52.5475 101.053 58.9475V98.2457C101.053 102.965 99.9684 106.572 98.9228 110.06Z" fill="#F5A922"/>
<path d="M89.8246 58.9473H140.351V98.2455H89.8246V58.9473Z" fill="#F79726"/>
<path d="M115.088 87.0174C119.738 87.0174 123.509 83.2472 123.509 78.5963C123.509 73.9455 119.738 70.1753 115.088 70.1753C110.437 70.1753 106.667 73.9455 106.667 78.5963C106.667 83.2472 110.437 87.0174 115.088 87.0174Z" fill="#E3E4E2"/>
<path d="M89.8246 58.9473H101.053V98.2455H89.8246V58.9473Z" fill="#E8732D"/>
<path d="M0 98.2456C0 106.667 4.27017 111.095 4.27017 122.484C4.27017 133.874 0 134.737 0 143.158C0 151.579 2.80702 160 8.42105 160C14.0351 160 16.8421 154.386 16.8421 154.386C16.8421 154.386 19.6491 160 25.2631 160C30.8772 160 33.6842 154.386 33.6842 154.386C33.6842 154.386 36.4912 160 42.1052 160C42.5528 160.002 42.9987 159.945 43.4316 159.831C48.1614 158.614 50.5263 150.888 50.5263 143.158C50.5263 134.737 46.2561 133.874 46.2561 122.484C46.2561 111.095 50.5263 106.667 50.5263 98.2456V58.9473C50.5263 52.8631 47.9333 47.9649 44.4772 42.1193C43.1509 39.8772 41.6982 37.4912 40.214 34.8491C34.8667 25.3193 30.8772 11.228 30.8772 11.228V5.61401H19.6491V11.228C19.6491 11.228 15.6596 25.3193 10.3123 34.8491C4.96491 44.3789 0 50.5263 0 58.9473V98.2456Z" fill="#85BB40"/>
<path d="M33.6842 11.228H16.8421V-4.00543e-05H33.6842V11.228Z" fill="#7B9E3E"/>
<path d="M41.428 110.06C42.5298 113.723 43.5684 117.183 43.5684 122.484C43.5684 127.526 42.6526 129.807 41.593 132.449C40.5193 135.137 39.2982 138.183 39.2982 143.158C39.2982 150.109 40.8105 155.877 43.4315 159.832C48.1614 158.614 50.5263 150.888 50.5263 143.158C50.5263 134.737 46.2561 133.874 46.2561 122.484C46.2561 111.095 50.5263 106.667 50.5263 98.2457V58.9475C50.5263 52.8632 47.9333 47.965 44.4772 42.1194C41.5052 47.4211 39.2982 52.5475 39.2982 58.9475V98.2457C39.2982 102.965 40.3824 106.572 41.428 110.06Z" fill="#85B140"/>
<path d="M0 58.9473H50.5263V98.2455H0V58.9473Z" fill="#7B9E3E"/>
<path d="M25.2631 87.0174C29.9139 87.0174 33.6841 83.2472 33.6841 78.5963C33.6841 73.9455 29.9139 70.1753 25.2631 70.1753C20.6123 70.1753 16.842 73.9455 16.842 78.5963C16.842 83.2472 20.6123 87.0174 25.2631 87.0174Z" fill="#E3E4E2"/>
<path d="M50.5262 98.2456H39.2982V58.9474H50.5262V98.2456Z" fill="#6F8F3C"/>
<path d="M75.7894 11.228C75.7894 11.228 79.7792 25.3182 85.1259 34.8487C90.4726 44.3793 95.4385 50.5263 95.4385 58.9473V98.2456C95.4385 106.667 91.1698 111.094 91.1698 122.484C91.1698 133.874 95.4385 134.737 95.4385 143.158C95.4385 151.579 92.6315 160 87.0175 160C81.4034 160 78.5964 154.386 78.5964 154.386C78.5964 154.386 75.7894 160 70.1754 160C64.5613 160 61.7543 154.386 61.7543 154.386C61.7543 154.386 58.9473 160 53.3333 160C47.7192 160 44.9122 151.579 44.9122 143.158C44.9122 134.737 49.181 133.874 49.181 122.484C49.181 111.094 44.9122 106.667 44.9122 98.2456V58.9473C44.9122 50.5263 49.8785 44.3796 55.2249 34.8487C60.5712 25.3179 64.5613 11.228 64.5613 11.228V5.61401H75.7894V11.228Z" fill="#724E26"/>
<path d="M61.7544 0H78.5965V11.2281H61.7544V0Z" fill="#EB5849"/>
<path d="M44.9122 58.9473H95.4385V98.2455H44.9122V58.9473Z" fill="#EB5849"/>
<path d="M70.1754 87.0174C74.8263 87.0174 78.5965 83.2472 78.5965 78.5963C78.5965 73.9455 74.8263 70.1753 70.1754 70.1753C65.5246 70.1753 61.7544 73.9455 61.7544 78.5963C61.7544 83.2472 65.5246 87.0174 70.1754 87.0174Z" fill="#E3E4E2"/>
</svg>
