<svg width="182" height="160" viewBox="0 0 182 160" fill="none" xmlns="http://www.w3.org/2000/svg">
<path d="M181.331 28.8642L180.57 36.121C174.425 41.136 165.787 45.5382 153.207 49.2782C151.387 49.82 150.165 51.4492 150.165 53.3298V123.231C146.089 122.044 141.58 120.985 136.707 120.068V29.4274C136.707 19.1779 124.343 12.7605 113.973 9.17989C101.999 5.04327 85.934 2.46143 69.0617 1.89477V0C95.4964 0 145.302 2.74122 168.457 13.7344C177 17.786 181.331 22.8789 181.331 28.8642Z" fill="#95C7EE"/>
<path d="M0 26.7393V133.26C0 150.815 34.8315 160 69.2388 160C103.646 160 138.478 150.815 138.478 133.26V26.7393H0Z" fill="#E9F3FB"/>
<path d="M138.478 26.7393V133.261C138.478 150.817 103.646 160 69.2388 160V26.7393H138.478Z" fill="#D6E9F8"/>
<path d="M69.2388 53.4785C107.478 53.4785 138.478 41.507 138.478 26.7393C138.478 11.9716 107.478 0 69.2388 0C30.9993 0 0 11.9716 0 26.7393C0 41.507 30.9993 53.4785 69.2388 53.4785Z" fill="#D6E9F8"/>
<path d="M138.478 26.7393C138.478 44.2951 103.646 53.4785 69.2388 53.4785V0C103.646 0 138.478 9.18344 138.478 26.7393Z" fill="#B2D7F3"/>
<path d="M181.331 28.8645V131.983C181.331 142.511 167.183 149.407 155.346 153.301C151.918 154.429 148.394 151.856 148.394 148.247V52.4447C148.394 50.086 149.953 48.0191 152.214 47.3469C168.02 42.6475 178.95 36.2757 181.317 28.2876C181.328 28.4749 181.331 28.6697 181.331 28.8645Z" fill="#D6E9F8"/>
<path d="M90.4885 21.4268H47.989C45.0551 21.4268 42.6766 23.8053 42.6766 26.7392C42.6766 29.6731 45.0551 32.0516 47.989 32.0516H90.4885C93.4224 32.0516 95.801 29.6731 95.801 26.7392C95.801 23.8053 93.4224 21.4268 90.4885 21.4268Z" fill="#95C7EE"/>
<path d="M95.801 26.7392C95.801 29.6717 93.421 32.0516 90.4885 32.0516H69.2388V21.4268H90.4885C93.421 21.4268 95.801 23.8067 95.801 26.7392Z" fill="#86BFEC"/>
<path d="M106.603 49.5684V61.0928C106.603 64.0253 104.223 66.4053 101.29 66.4053C98.358 66.4053 95.978 64.0253 95.978 61.0928V51.5658C99.6542 51.0169 103.214 50.3511 106.603 49.5684Z" fill="#B2D7F3"/>
<path d="M101.29 77.0303C98.3566 77.0303 95.978 79.4088 95.978 82.3427V92.9676C95.978 95.9015 98.3566 98.28 101.29 98.28C104.224 98.28 106.603 95.9015 106.603 92.9676V82.3427C106.603 79.4088 104.224 77.0303 101.29 77.0303Z" fill="#B2D7F3"/>
<path d="M101.29 109.259C98.3566 109.259 95.978 111.638 95.978 114.572V124.488C95.978 127.422 98.3566 129.801 101.29 129.801C104.224 129.801 106.603 127.422 106.603 124.488V114.572C106.603 111.638 104.224 109.259 101.29 109.259Z" fill="#B2D7F3"/>
<path d="M106.603 146.092V156.09C103.214 156.873 99.6542 157.539 95.978 158.087V146.092C95.978 143.16 98.358 140.78 101.29 140.78C104.223 140.78 106.603 143.16 106.603 146.092Z" fill="#B2D7F3"/>
</svg>
