<svg width="180" height="160" viewBox="0 0 180 160" fill="none" xmlns="http://www.w3.org/2000/svg">
<path d="M39.4037 16.1292H21.2816V28.2218H39.4037V16.1292Z" fill="#48C1E1"/>
<path d="M43.1415 14.798C43.1415 15.7896 42.3305 16.6009 41.339 16.6009H19.3464C18.3548 16.6009 17.5438 15.7896 17.5438 14.798V1.80293C17.5438 0.811337 18.3548 0 19.3464 0H41.3386C42.3302 0 43.1412 0.811337 43.1412 1.80293L43.1415 14.798Z" fill="#046699"/>
<g opacity="0.1">
<path opacity="0.1" d="M25.0632 14.798V1.80293C25.0632 0.811337 25.8742 0 26.8661 0H19.3464C18.3548 0 17.5438 0.811337 17.5438 1.80293V14.798C17.5438 15.7896 18.3548 16.6009 19.3464 16.6009H26.8661C25.8746 16.6009 25.0632 15.7896 25.0632 14.798Z" fill="black"/>
</g>
<path d="M15.6639 114.155C15.7566 114.117 15.8287 114.041 15.8613 113.946C15.8942 113.851 15.8844 113.747 15.8354 113.66C15.6852 113.394 15.6093 113.134 15.6093 112.885C15.6093 110.956 19.8896 108.89 26.2624 108.89C28.3131 108.89 30.311 109.118 32.0401 109.55C32.0681 109.557 32.0964 109.56 32.1248 109.56C32.2165 109.56 32.3057 109.524 32.3722 109.458C32.4594 109.371 32.4944 109.245 32.4643 109.126C31.3523 104.687 30.7156 100.125 30.5662 95.4634C30.5641 95.4091 30.5606 95.3549 30.5588 95.3003C30.5389 94.6349 30.5284 93.9674 30.5284 93.2982C30.5284 92.491 31.1832 91.8344 31.9886 91.8344H35.151C35.2504 91.8344 35.3456 91.7921 35.4118 91.7179C35.4779 91.6437 35.5098 91.5446 35.4989 91.4455C35.4471 90.9818 35.423 90.5943 35.423 90.2257C35.423 85.294 38.5766 80.9867 43.2707 79.5079C43.3673 79.4774 43.446 79.4064 43.4863 79.3133C43.5269 79.2202 43.5248 79.1141 43.4807 79.0228C43.0544 78.1334 42.7555 77.2037 42.5916 76.2601C41.774 71.5415 44.2427 66.8436 48.5944 64.8356C48.7589 64.7596 48.8384 64.5706 48.7775 64.3998C48.5731 63.8279 48.4184 63.2406 48.3169 62.6536C47.6532 58.8251 49.1506 55.1121 51.9241 52.7611V37.7297C51.9241 32.1959 47.4072 27.6685 41.8857 27.6685H18.799C13.2782 27.6685 8.76086 32.1959 8.76086 37.7297V118.33C10.7724 116.635 13.0913 115.215 15.6639 114.155Z" fill="#A2DFF9"/>
<path d="M43.271 79.5071C43.3676 79.4767 43.4464 79.4056 43.4866 79.3125C43.5272 79.2194 43.5251 79.1134 43.481 79.022C43.0547 78.1326 42.7558 77.203 42.592 76.2594C41.7744 71.5408 44.243 66.8429 48.5948 64.8348C48.7593 64.7589 48.8387 64.5699 48.7778 64.3991C48.5734 63.8271 48.4187 63.2398 48.3172 62.6528C47.6536 58.8244 49.1509 55.1114 51.9245 52.7603V45.9924H8.76086V83.2348H37.8538C39.2115 81.5232 41.0684 80.2012 43.271 79.5071Z" fill="#046699"/>
<path opacity="0.1" d="M19.6009 109.791V37.7292C19.6009 32.1954 24.1178 27.668 29.639 27.668H18.799C13.2782 27.668 8.76086 32.1954 8.76086 37.7292V118.33C10.7724 116.635 13.0913 115.215 15.6639 114.155C15.7566 114.117 15.8287 114.041 15.8613 113.946C15.8942 113.851 15.8844 113.747 15.8354 113.66C15.6852 113.394 15.6093 113.133 15.6093 112.885C15.6096 111.751 17.0898 110.572 19.6009 109.791Z" fill="black"/>
<path d="M84.8929 56.2856C84.9941 56.8694 85.0462 57.475 85.0473 58.0857C85.0476 58.2671 85.1859 58.4179 85.3665 58.434C89.847 58.8278 93.5933 62.0196 94.6895 66.3769C94.7196 66.497 94.8113 66.5922 94.93 66.6272C94.9629 66.637 94.9958 66.6415 95.029 66.6415C95.1165 66.6415 95.2019 66.6086 95.2677 66.5474C97.0934 64.8445 99.3654 63.8211 101.838 63.588C102.014 63.5715 102.15 63.427 102.155 63.2509C102.314 58.3427 104.31 53.727 107.775 50.2545C107.848 50.182 107.923 50.1145 107.997 50.0431C107.23 45.1562 104.978 40.46 101.229 36.7022C100.491 35.9637 99.2961 35.9633 98.5575 36.7022L83.1932 52.1019C84.0319 53.3248 84.6248 54.7403 84.8929 56.2856Z" fill="#EF5050"/>
<path d="M94.6892 66.3767C94.7193 66.4968 94.811 66.592 94.9296 66.627C94.9625 66.6368 94.9954 66.6413 95.0287 66.6413C95.1162 66.6413 95.2016 66.6084 95.2674 66.5472C96.1593 65.7152 97.1589 65.0484 98.2355 64.5538C98.1151 64.1524 97.8971 63.7736 97.5803 63.4558L95.0318 60.9011C94.0084 59.8748 92.3462 59.8724 91.3196 60.8965C91.3119 60.9039 91.3059 60.9119 91.2986 60.9196C92.9311 62.3116 94.1414 64.1986 94.6892 66.3767Z" fill="#C0272D"/>
<path d="M100.148 58.6067H96.5446C95.0944 58.6067 93.9194 57.4313 93.9194 55.9816C93.9194 54.5318 95.0944 53.3564 96.5446 53.3564H100.148C101.598 53.3564 102.773 54.5318 102.773 55.9816C102.773 57.4317 101.598 58.6067 100.148 58.6067Z" fill="#C0272D"/>
<path d="M96.0361 51.3542C95.3651 51.3542 94.6941 51.0987 94.1817 50.5874C93.1555 49.5632 93.1541 47.901 94.1779 46.8747L96.7274 44.3203C97.7515 43.2944 99.4137 43.2927 100.44 44.3168C101.466 45.341 101.467 47.0032 100.443 48.0294L97.894 50.5839C97.3815 51.097 96.7088 51.3542 96.0361 51.3542Z" fill="#C0272D"/>
<path d="M128.947 46.0002C128.916 45.9201 128.868 45.8487 128.809 45.7888C128.749 45.7289 128.678 45.6813 128.598 45.6498C121.328 42.7542 113.057 44.4647 107.527 50.0072C103.853 53.6894 101.869 58.584 101.797 63.5917C102.16 63.556 102.528 63.5367 102.901 63.5367C108.345 63.5367 112.893 67.4464 113.902 72.6112C117.872 71.9644 121.631 70.0953 124.6 67.1195C130.13 61.5763 131.837 53.2868 128.947 46.0002Z" fill="#89C947"/>
<path d="M119.516 55.1038C118.489 54.0797 116.827 54.0814 115.803 55.108L106.723 64.2095C108.437 64.8343 109.956 65.8668 111.166 67.1895L119.52 58.8161C120.544 57.7899 120.542 56.1276 119.516 55.1038Z" fill="#D5E962"/>
<path d="M132.717 76.0637C132.809 76.5929 132.856 77.1379 132.856 77.6839C132.856 77.8653 132.995 78.0161 133.175 78.0322C134.596 78.1572 135.95 78.5975 137.201 79.3409C137.257 79.3742 137.318 79.3903 137.38 79.3903C137.478 79.3903 137.575 79.349 137.644 79.2702C137.942 78.9283 138.198 78.6514 138.45 78.399C140.563 76.2814 143.118 74.7701 145.903 73.9461C146.165 72.9787 146.307 71.9622 146.307 70.9118C146.307 64.5125 141.131 59.3242 134.745 59.3242C129.3 59.3242 124.736 63.0991 123.51 68.1796C128.076 68.2587 131.934 71.5464 132.717 76.0637Z" fill="#FFC502"/>
<path d="M53.4856 91.5822C52.3134 89.5048 51.5714 87.2266 51.2879 84.8822C47.8766 84.3243 44.9806 82.1395 43.4969 79.0723C38.6372 80.4436 35.0737 84.9154 35.0737 90.2245C35.0737 90.6844 35.1087 91.1359 35.1609 91.5818H53.4856V91.5822Z" fill="#FFC502"/>
<path d="M141.719 85.886C142.057 87.8366 141.789 89.8013 140.944 91.5825H155.8C159.308 86.6557 160.156 80.2259 157.875 74.4716C157.846 74.3985 157.803 74.3327 157.748 74.2777C157.693 74.2228 157.627 74.179 157.554 74.15C150.877 71.4905 143.281 73.0614 138.202 78.1517C137.831 78.5238 137.484 78.9123 137.151 79.3099C139.509 80.6946 141.23 83.0624 141.719 85.886Z" fill="#89C947"/>
<path d="M140.944 91.5824H144.19L149.368 86.393C150.392 85.3668 150.39 83.7045 149.363 82.6807C148.337 81.6566 146.675 81.6584 145.651 82.6849L141.807 86.5379C141.987 88.2715 141.695 89.9996 140.944 91.5824Z" fill="#D5E962"/>
<path d="M95.0913 66.5798C94.0381 61.865 90.0472 58.4937 85.3973 58.0852C85.3962 57.4716 85.3465 56.8504 85.238 56.2256C84.2069 50.2767 78.5412 46.2939 72.5839 47.331C69.4915 47.8693 66.9318 49.6561 65.3246 52.0793C62.9973 50.3408 59.9854 49.5242 56.893 50.0622C50.9347 51.0996 46.9414 56.7636 47.9732 62.7124C48.081 63.3372 48.2427 63.9392 48.4489 64.5168C44.0527 66.5451 41.3831 71.3302 42.2477 76.3189C43.0646 81.0347 46.7954 84.5114 51.2749 85.2345C50.8409 82.2272 51.1892 79.1233 52.3516 76.1912C52.3628 76.1625 52.3796 76.1373 52.4016 76.1149C52.423 76.0935 52.4489 76.0767 52.4772 76.0652C54.5626 75.2346 56.7544 74.8132 58.991 74.8132C63.6956 74.8132 68.1208 76.6511 71.4512 79.9889C71.692 80.2307 71.9231 80.4803 72.1481 80.7337C71.9619 79.5268 71.8653 78.2983 71.8653 77.0533C71.8653 76.2027 72.5552 75.5108 73.4033 75.5108H91.7315C91.7158 75.2671 91.7042 75.0221 91.7042 74.7743C91.7042 71.5745 92.9986 68.677 95.0913 66.5798Z" fill="#368C0E"/>
<path d="M56.7568 67.6049C56.7414 67.6049 56.7264 67.6046 56.7113 67.6046C55.2615 67.5801 54.1065 66.3851 54.131 64.9354C54.208 60.3904 57.9357 56.7422 62.4684 56.7422C62.5128 56.7422 62.5569 56.7425 62.6017 56.7432C64.8852 56.7786 67.0788 57.766 68.6192 59.4527C69.5968 60.5234 69.5215 62.1839 68.4512 63.1615C67.3808 64.1394 65.7204 64.0642 64.7424 62.9938C64.1656 62.3617 63.376 62.0064 62.5195 61.9931C60.8132 61.9655 59.4089 63.3263 59.3802 65.0246C59.3564 66.4586 58.1856 67.6046 56.7568 67.6049Z" fill="#89C947"/>
<path d="M71.2488 72.1218C70.9457 72.1218 70.6374 72.0689 70.3367 71.9573C68.9772 71.4529 68.2838 69.9426 68.7879 68.5831C70.2523 64.6353 74.658 62.6094 78.6104 64.0672C80.5761 64.7931 82.1735 66.3153 82.9929 68.2439C83.5599 69.5782 82.9383 71.1197 81.6037 71.6867C80.2701 72.2541 78.7283 71.6321 78.1609 70.2975C77.9009 69.686 77.4147 69.2226 76.7924 68.9926C75.5509 68.5348 74.1697 69.1704 73.7105 70.4088C73.3181 71.4672 72.315 72.1218 71.2488 72.1218Z" fill="#89C947"/>
<path d="M114.089 75.4822H113.993C113.992 75.5067 113.992 75.5316 113.991 75.5561H117.508C118.551 75.5561 119.396 76.4035 119.396 77.4486C119.396 82.7234 117.694 87.6005 114.826 91.5823H141.321C142.113 89.8392 142.415 87.8528 142.064 85.8259C141.284 81.3205 137.56 78.0657 133.206 77.6831C133.205 77.1291 133.159 76.5676 133.062 76.0038C132.131 70.6303 127.013 67.0332 121.633 67.9699C118.84 68.4567 116.527 70.0699 115.076 72.2593C114.605 71.9079 114.102 71.602 113.575 71.3388C113.923 72.4224 114.113 73.5764 114.113 74.7745C114.113 75.0055 114.105 75.2393 114.089 75.4822Z" fill="#368C0E"/>
<path d="M114.435 75.5107C114.451 75.2671 114.463 75.0221 114.463 74.7743C114.463 68.3742 109.287 63.1863 102.901 63.1863C96.5162 63.1863 91.3398 68.3746 91.3398 74.7743C91.3398 75.0221 91.3514 75.2671 91.3671 75.5107H114.435Z" fill="#F7931E"/>
<path d="M71.699 79.742C66.62 74.6521 59.0243 73.0812 52.3474 75.7403C52.2742 75.7697 52.2088 75.8135 52.1535 75.8681C52.0988 75.923 52.0551 75.9885 52.026 76.0623C49.9834 81.2152 50.451 86.9097 53.0887 91.5824H76.9178C74.5041 88.3671 72.8677 84.5352 72.2934 80.3672C72.1009 80.1551 71.9031 79.9464 71.699 79.742Z" fill="#89C947"/>
<path d="M64.1237 91.5823H71.5402L64.2497 84.2754C63.2255 83.2495 61.564 83.2467 60.5374 84.2712C59.5108 85.295 59.5087 86.9572 60.5329 87.9835L64.1237 91.5823Z" fill="#D5E962"/>
<path d="M115.003 91.5823C118.045 87.5306 119.858 82.5026 119.858 77.0532C119.858 76.008 119.013 75.1606 117.969 75.1606H73.4032C72.3598 75.1606 71.5153 76.008 71.5153 77.0532C71.5153 82.5026 73.3287 87.5306 76.3703 91.5823H115.003Z" fill="#EF5050"/>
<path d="M98.407 91.5826V89.7667C98.407 88.317 97.232 87.1416 95.7819 87.1416C94.3317 87.1416 93.1567 88.317 93.1567 89.7667V91.5826H98.407Z" fill="#C0272D"/>
<path d="M103.443 91.5822H107.526C108.37 90.5521 108.313 89.0296 107.352 88.0663L104.804 85.5119C103.78 84.4857 102.117 84.4832 101.091 85.5073C100.065 86.5315 100.063 88.1934 101.087 89.2196L103.443 91.5822Z" fill="#C0272D"/>
<path d="M87.7066 91.5824L90.0629 89.2205C91.087 88.1942 91.0853 86.532 90.059 85.5082C89.0328 84.484 87.3706 84.4858 86.3464 85.512L83.7976 88.0664C82.8368 89.0293 82.7791 90.5519 83.6233 91.582L87.7066 91.5824Z" fill="#C0272D"/>
<path d="M83.6706 84.5032H80.0662C78.616 84.5032 77.441 83.3278 77.441 81.878C77.441 80.4283 78.616 79.2529 80.0662 79.2529H83.6706C85.1207 79.2529 86.2957 80.4283 86.2957 81.878C86.2957 83.3278 85.1204 84.5032 83.6706 84.5032Z" fill="#C0272D"/>
<path d="M111.307 84.5032H107.702C106.253 84.5032 105.077 83.3278 105.077 81.878C105.077 80.4283 106.253 79.2529 107.702 79.2529H111.307C112.757 79.2529 113.932 80.4283 113.932 81.878C113.932 83.3278 112.757 84.5032 111.307 84.5032Z" fill="#C0272D"/>
<path d="M32.5445 109.683C32.576 109.692 32.6078 109.696 32.6393 109.696C32.7149 109.696 32.7891 109.672 32.8507 109.625C32.9382 109.559 32.9893 109.456 32.9893 109.346V104.903C32.9893 103.649 34.01 102.628 35.2644 102.628C36.5189 102.628 37.5395 103.649 37.5395 104.903V109.346C37.5395 109.456 37.5906 109.559 37.6782 109.625C37.7398 109.672 37.814 109.696 37.8896 109.696C37.9214 109.696 37.9533 109.692 37.9844 109.683C39.8258 109.164 41.9984 108.89 44.2661 108.89C50.6382 108.89 54.9189 110.955 54.9189 112.884C54.9189 113.134 54.8429 113.394 54.6928 113.66C54.6431 113.747 54.6336 113.852 54.6665 113.946C54.6994 114.041 54.7712 114.118 54.8639 114.156C63.0224 117.519 68.8037 124.652 69.9521 132.772C69.9671 132.878 70.0291 132.97 70.1204 133.025C70.175 133.057 70.2366 133.073 70.2986 133.073C70.3406 133.073 70.3826 133.066 70.4228 133.051L125.682 112.058C126.751 111.652 127.873 111.446 129.017 111.446C130.62 111.446 132.205 111.86 133.602 112.641C136.031 114.001 137.714 116.345 138.22 119.074L138.701 121.673C138.722 121.785 138.796 121.88 138.9 121.927C138.946 121.948 138.996 121.959 139.045 121.959C139.107 121.959 139.169 121.943 139.223 121.91L157.802 110.943C159.399 105.254 160.208 99.3556 160.208 93.2972C160.208 92.2954 159.397 91.4834 158.398 91.4834H31.989C30.9893 91.4834 30.1787 92.2954 30.1787 93.2972C30.1787 98.8803 30.8689 104.327 32.2253 109.6C32.3313 109.628 32.4405 109.653 32.5445 109.683Z" fill="#E6E9ED"/>
<path opacity="0.1" d="M32.5445 109.683C32.576 109.692 32.6078 109.696 32.6393 109.696C32.7149 109.696 32.7891 109.672 32.8507 109.625C32.9382 109.559 32.9893 109.456 32.9893 109.346V104.903C32.9893 103.649 34.01 102.628 35.2644 102.628C36.5189 102.628 37.5395 103.649 37.5395 104.903V109.346C37.5395 109.456 37.5906 109.559 37.6782 109.625C37.7398 109.672 37.814 109.696 37.8896 109.696C37.9214 109.696 37.9533 109.692 37.9844 109.683C39.5605 109.239 41.3803 108.975 43.2938 108.909C42.0533 103.852 41.4251 98.6363 41.4251 93.2972C41.4251 92.2954 42.2354 91.4834 43.2354 91.4834H31.989C30.9893 91.4834 30.1787 92.2954 30.1787 93.2972C30.1787 98.8803 30.8689 104.327 32.2253 109.6C32.3313 109.628 32.4405 109.653 32.5445 109.683Z" fill="black"/>
<path d="M35.2641 110.932C35.983 110.528 36.8734 110.177 37.8899 109.89V104.903C37.8899 103.453 36.7149 102.278 35.2648 102.278C33.8147 102.278 32.6396 103.453 32.6396 104.903V109.89C33.6561 110.176 34.5455 110.528 35.2641 110.932Z" fill="#89C947"/>
<path d="M62.082 159.646L52.6007 159.65H52.5972C48.0838 159.65 44.2137 156.442 43.3953 152.022L43.3019 151.52C42.4832 147.099 44.9508 142.727 49.1695 141.124L70.35 133.078C69.2594 124.354 63.1117 117.048 54.67 113.696C53.851 115.073 51.0306 116.271 47.3582 116.702C47.2182 116.718 47.1013 116.817 47.0624 116.953C47.0236 117.089 47.0698 117.235 47.18 117.323C49.0834 118.845 50.2791 120.451 50.3788 121.617C50.4152 122.04 50.3113 122.383 50.0607 122.666C49.6144 123.17 48.7366 123.436 47.5227 123.436C47.5227 123.436 47.5227 123.436 47.5224 123.436C45.159 123.436 41.9634 122.448 38.9736 120.793C37.6568 120.063 36.4853 119.266 35.4902 118.423C35.4248 118.368 35.3442 118.34 35.2641 118.34C35.1836 118.34 35.1031 118.368 35.038 118.423C34.0422 119.267 32.8707 120.065 31.5553 120.793C28.5655 122.448 25.3695 123.436 23.0062 123.436C21.792 123.436 20.9145 123.17 20.4682 122.666C20.2176 122.383 20.1133 122.04 20.1497 121.618C20.2498 120.451 21.4455 118.846 23.3482 117.323C23.4581 117.235 23.5046 117.089 23.4658 116.953C23.4273 116.817 23.3104 116.718 23.17 116.702C19.4966 116.271 16.6758 115.072 15.8582 113.695C6.53025 117.398 0 125.928 0 135.863C0 149.194 11.7539 160 26.2526 160H62.6528C63.0459 160 62.7417 159.86 62.082 159.646Z" fill="#EF5050"/>
<path opacity="0.1" d="M11.358 135.863C11.358 127.945 15.505 120.918 21.9103 116.516C18.8603 115.983 16.5792 114.91 15.8578 113.695C6.53025 117.398 0 125.928 0 135.863C0 149.194 11.7539 160 26.2526 160H37.611C23.1122 160 11.358 149.194 11.358 135.863Z" fill="black"/>
<path d="M55.2692 112.885C55.2692 110.485 50.3431 108.54 44.2665 108.54C40.5444 108.54 37.255 109.271 35.2637 110.388C33.2739 109.271 29.9848 108.54 26.262 108.54C20.1857 108.54 15.2589 110.485 15.2589 112.885C15.2589 114.854 18.5792 116.516 23.1283 117.05C20.3453 119.277 19.0709 121.618 20.205 122.898C21.7076 124.595 26.8654 123.789 31.7237 121.099C33.0877 120.344 34.283 119.521 35.263 118.69C36.2441 119.522 37.4401 120.344 38.8031 121.099C43.6616 123.789 48.8191 124.594 50.3214 122.898C51.4558 121.618 50.1817 119.277 47.3977 117.05C51.95 116.516 55.2692 114.854 55.2692 112.885Z" fill="#368C0E"/>
<path d="M179.167 128.429L178.463 124.626C178.22 123.313 176.954 122.446 175.636 122.688L148.429 127.685L165.801 116.073C166.624 115.523 167.005 114.551 166.836 113.628C166.788 113.372 166.698 113.12 166.563 112.881L164.597 109.399C164.278 108.832 163.741 108.417 163.11 108.249C162.479 108.081 161.807 108.173 161.245 108.505L138.646 121.845L142.922 144.925L168.842 149.583C169.487 149.699 170.154 149.55 170.687 149.169C171.22 148.788 171.576 148.207 171.672 147.56L172.258 143.629C172.299 143.358 172.293 143.091 172.246 142.836C172.075 141.911 171.369 141.14 170.403 140.919L150.014 136.242L177.221 131.244C178.54 131.002 179.41 129.742 179.167 128.429Z" fill="#89C947"/>
<path d="M43.0513 152.086C43.9008 156.673 47.9176 160.001 52.6008 160L134.493 159.968C137.375 159.967 140.108 158.691 141.951 156.484C143.795 154.278 144.559 151.37 144.036 148.546L138.565 119.01C138.042 116.187 136.286 113.742 133.774 112.335C131.261 110.929 128.251 110.708 125.558 111.73L49.0453 140.797C44.6694 142.46 42.1087 146.996 42.9578 151.583L43.0513 152.086Z" fill="#F7931E"/>
<g opacity="0.1">
<path opacity="0.1" d="M43.0513 152.086C43.1815 152.79 43.3947 153.46 43.6652 154.097C44.794 152.092 46.6071 150.47 48.8959 149.6L128.801 119.245C131.613 118.177 134.756 118.408 137.38 119.876C137.931 120.185 138.446 120.544 138.922 120.942L138.565 119.01C138.042 116.187 136.286 113.742 133.774 112.335C131.261 110.929 128.251 110.708 125.558 111.73L49.0453 140.797C44.6694 142.46 42.1087 146.996 42.9578 151.583L43.0513 152.086Z" fill="black"/>
</g>
<path d="M129.799 147.689C129.527 146.265 128.148 145.331 126.727 145.604C125.304 145.876 124.37 147.251 124.642 148.675L126.803 159.971L132.149 159.969L129.799 147.689Z" fill="#FFC502"/>
<path d="M115.569 150.802C115.301 149.377 113.928 148.44 112.503 148.708C111.079 148.977 110.141 150.35 110.41 151.774L111.956 159.977L117.299 159.975L115.569 150.802Z" fill="#FFC502"/>
<path d="M101.658 131.03C101.958 132.221 103.028 133.015 104.202 133.015C104.414 133.015 104.63 132.989 104.845 132.935C106.251 132.581 107.104 131.154 106.75 129.748L104.251 119.825L99.3097 121.702L101.658 131.03Z" fill="#FFC502"/>
<path d="M87.9986 148.514C87.7413 147.088 86.3773 146.139 84.9493 146.397C83.5226 146.654 82.5744 148.019 82.8317 149.446L84.7326 159.987L90.0672 159.985L87.9986 148.514Z" fill="#FFC502"/>
<path d="M61.516 143.607C61.7753 144.845 62.8663 145.694 64.0823 145.694C64.2612 145.694 64.4425 145.676 64.6245 145.637C66.0434 145.34 66.9517 143.948 66.6542 142.529L65.0172 134.729L60.0491 136.617L61.516 143.607Z" fill="#FFC502"/>
</svg>
