<svg width="101" height="46" viewBox="0 0 101 46" fill="none" xmlns="http://www.w3.org/2000/svg">
<g filter="url(#filter0_d)">
<path fill-rule="evenodd" clip-rule="evenodd" d="M5 2C3.89543 2 3 2.89543 3 4V31.2941C3 32.3987 3.89543 33.2941 5 33.2941H50.4286L59 40V33.2941H94C95.1046 33.2941 96 32.3987 96 31.2941V4C96 2.89543 95.1046 2 94 2H5Z" fill="white"/>
</g>
<path d="M17.5 12.3412H18.736C18.736 12.8132 18.72 13.4332 18.688 14.2012H23.32V15.1612C23.32 16.4172 23.296 17.4532 23.248 18.2692C23.208 19.0852 23.144 19.7612 23.056 20.2972C22.968 20.8252 22.836 21.2252 22.66 21.4972C22.484 21.7612 22.288 21.9412 22.072 22.0372C21.864 22.1332 21.592 22.1812 21.256 22.1812C20.624 22.1812 19.828 22.1292 18.868 22.0252L18.976 20.8612C19.744 20.9412 20.384 20.9812 20.896 20.9812C21.2 20.9812 21.424 20.8772 21.568 20.6692C21.712 20.4532 21.82 19.9772 21.892 19.2412C21.964 18.4972 22 17.3372 22 15.7612V15.3412H18.616C18.464 17.1092 18.12 18.5172 17.584 19.5652C17.056 20.6052 16.24 21.5532 15.136 22.4092L14.344 21.5332C15.304 20.7972 16.016 19.9892 16.48 19.1092C16.944 18.2212 17.248 16.9652 17.392 15.3412H14.44V14.2012H17.464C17.488 13.6412 17.5 13.0212 17.5 12.3412ZM26.656 14.1892L27.244 13.0732C28.596 13.7292 29.828 14.3892 30.94 15.0532L30.304 16.1692C28.968 15.3852 27.752 14.7252 26.656 14.1892ZM34.9 14.1892L36.1 14.4532C35.284 19.1092 32.284 21.6652 27.1 22.1212L26.92 20.8972C29.248 20.6732 31.056 20.0172 32.344 18.9292C33.64 17.8412 34.492 16.2612 34.9 14.1892ZM40.66 12.4492L41.86 12.5332C41.828 12.8532 41.772 13.2092 41.692 13.6012H47.26V14.0812C47.26 16.8092 46.624 18.8332 45.352 20.1532C44.088 21.4732 42.064 22.2492 39.28 22.4812L39.1 21.3412C40.5 21.2052 41.652 20.9492 42.556 20.5732C43.46 20.1972 44.176 19.6652 44.704 18.9772C43.328 18.2812 42.104 17.6972 41.032 17.2252L41.608 16.1212C42.944 16.7132 44.184 17.3012 45.328 17.8852C45.68 17.0532 45.88 16.0052 45.928 14.7412H41.38C40.9 16.1172 40.112 17.3212 39.016 18.3532L38.164 17.5732C38.852 16.9172 39.412 16.1452 39.844 15.2572C40.276 14.3612 40.548 13.4252 40.66 12.4492ZM50.656 14.1892L51.244 13.0732C52.596 13.7292 53.828 14.3892 54.94 15.0532L54.304 16.1692C52.968 15.3852 51.752 14.7252 50.656 14.1892ZM58.9 14.1892L60.1 14.4532C59.284 19.1092 56.284 21.6652 51.1 22.1212L50.92 20.8972C53.248 20.6732 55.056 20.0172 56.344 18.9292C57.64 17.8412 58.492 16.2612 58.9 14.1892ZM64.66 21.9412V14.7412H64.636L62.38 16.7812L61.9 15.7012L64.66 13.1812H65.98V21.9412H64.66ZM74.2826 22.7452L74.2586 21.6172C74.9866 21.6652 75.5906 21.6892 76.0706 21.6892C76.3106 21.6892 76.4906 21.6092 76.6106 21.4492C76.7386 21.2892 76.8386 20.9252 76.9106 20.3572C76.9826 19.7892 77.0186 18.9372 77.0186 17.8012V17.1412H73.9826C73.8626 18.6132 73.5266 19.8052 72.9746 20.7172C72.4306 21.6292 71.6066 22.4052 70.5026 23.0452L69.6986 22.0372C70.6506 21.5252 71.3626 20.8932 71.8346 20.1412C72.3066 19.3812 72.6026 18.3812 72.7226 17.1412H71.1026V16.3612C70.6866 16.8332 70.2306 17.2772 69.7346 17.6932L68.8466 16.7932C70.3266 15.5372 71.4826 14.0732 72.3146 12.4012L73.4666 12.8212C72.9146 14.0052 72.2266 15.0772 71.4026 16.0372H77.7146C76.8906 15.0772 76.2026 14.0052 75.6506 12.8212L76.8026 12.4012C77.6346 14.0732 78.7906 15.5372 80.2706 16.7932L79.3826 17.6932C78.9346 17.3012 78.5746 16.9652 78.3026 16.6852V17.2612C78.3026 18.3012 78.2826 19.1452 78.2426 19.7932C78.2026 20.4412 78.1426 20.9812 78.0626 21.4132C77.9826 21.8372 77.8546 22.1452 77.6786 22.3372C77.5026 22.5372 77.3106 22.6692 77.1026 22.7332C76.8946 22.8052 76.6066 22.8412 76.2386 22.8412C75.8706 22.8412 75.2186 22.8092 74.2826 22.7452ZM82.1426 13.1812H83.7026L83.5226 19.4212H82.3226L82.1426 13.1812ZM82.2026 21.9412V20.3812H83.6426V21.9412H82.2026Z" fill="#EB5757"/>
<defs>
<filter id="filter0_d" x="0" y="0" width="101" height="46" filterUnits="userSpaceOnUse" color-interpolation-filters="sRGB">
<feFlood flood-opacity="0" result="BackgroundImageFix"/>
<feColorMatrix in="SourceAlpha" type="matrix" values="0 0 0 0 0 0 0 0 0 0 0 0 0 0 0 0 0 0 127 0"/>
<feOffset dx="1" dy="2"/>
<feGaussianBlur stdDeviation="2"/>
<feColorMatrix type="matrix" values="0 0 0 0 0 0 0 0 0 0 0 0 0 0 0 0 0 0 0.15 0"/>
<feBlend mode="normal" in2="BackgroundImageFix" result="effect1_dropShadow"/>
<feBlend mode="normal" in="SourceGraphic" in2="effect1_dropShadow" result="shape"/>
</filter>
</defs>
</svg>
