<svg width="55" height="40" viewBox="0 0 55 40" fill="none" xmlns="http://www.w3.org/2000/svg">
<path d="M7.50008 9.99994H15.0001V0H49.9999C52.7625 0 54.9999 2.23746 54.9999 5.00003V32.5H49.9999C49.9999 36.6375 46.6375 40 42.4999 40C38.3624 40 34.9999 36.6375 34.9999 32.5H20C20 36.6375 16.6375 40 12.5 40C8.36246 40 5.00001 36.6375 5.00001 32.5H-2.67029e-05V20L7.50008 9.99994ZM42.4999 36.2499C44.575 36.2499 46.2499 34.5749 46.2499 32.4999C46.2499 30.4249 44.575 28.7499 42.4999 28.7499C40.4249 28.7499 38.7499 30.4249 38.7499 32.4999C38.7499 34.5749 40.425 36.2499 42.4999 36.2499ZM12.5 36.2499C14.575 36.2499 16.25 34.5749 16.25 32.4999C16.25 30.4249 14.575 28.7499 12.5 28.7499C10.425 28.7499 8.75 30.4249 8.75 32.4999C8.75 34.5749 10.4251 36.2499 12.5 36.2499ZM15.0001 20V13.7501H8.75011L3.83762 20H15.0001Z" fill="#282828"/>
</svg>
