<svg width="161" height="160" viewBox="0 0 161 160" fill="none" xmlns="http://www.w3.org/2000/svg">
<path d="M49.7003 103.625L72.1016 81.2232L78.7565 87.8781L56.3552 110.279L49.7003 103.625Z" fill="#A7D2D7"/>
<path d="M85.903 67.4316L132.247 21.0875L138.902 27.7424L92.5579 74.0865L85.903 67.4316Z" fill="#A7D2D7"/>
<path d="M89.2299 70.7588L135.574 24.4146L138.902 27.7422L92.5575 74.0865L89.2299 70.7588Z" fill="#7BA0B0"/>
<path d="M53.027 106.951L75.4286 84.5498L78.7563 87.8774L56.3547 110.278L53.027 106.951Z" fill="#7BA0B0"/>
<path d="M142.897 153.015L125.951 136.069L141.082 120.937L158.029 137.884C162.52 127.391 160.485 114.767 151.919 106.201C145.364 99.646 137.295 97.7748 129.478 99.5833C126.868 100.187 120.993 102.506 119.099 100.611L59.2064 40.718C57.3423 38.854 59.6551 33.0356 60.2086 30.4583C61.8596 22.7699 59.9434 14.8681 53.5028 8.42781C44.9371 -0.137904 32.3126 -2.17359 21.8197 2.31791L38.7667 19.2648L23.6355 34.396L6.68824 17.4494C2.19642 27.9419 4.23211 40.5665 12.7981 49.1325C19.3529 55.6873 27.422 57.5586 35.2387 55.7501C37.8492 55.1461 40.5859 55.9653 42.4807 57.8601L102.373 117.753C104.237 119.617 105.062 122.297 104.509 124.875C102.858 132.563 104.774 140.465 111.214 146.905C119.78 155.471 132.405 157.507 142.897 153.015Z" fill="#E4EBEF"/>
<path d="M5.22177 154.778C-2.09925 147.457 -1.66531 135.46 6.16588 128.687L47.3422 94.98L65.0198 112.658L31.3124 153.834C24.5395 161.665 12.5428 162.099 5.22177 154.778Z" fill="#FF9468"/>
<path d="M5.22144 154.778L5.22175 154.778C12.5428 162.099 24.5398 161.665 31.3127 153.834L65.0198 112.658L56.1805 103.818L5.22144 154.778Z" fill="#FF5B5B"/>
<path d="M144.888 1.75049L157.898 14.7613L141.928 30.7315L128.917 17.7207L144.888 1.75049Z" fill="#C7E2E5"/>
<path d="M25.2013 141.453L8.99544 157.662C7.64626 156.896 6.37552 155.933 5.22088 154.778C4.06623 153.624 3.10612 152.353 2.3374 151.007L18.5464 134.798C20.385 132.959 23.3658 132.959 25.2013 134.798C27.0399 136.637 27.0399 139.617 25.2013 141.453Z" fill="#FF5B5B"/>
<path d="M55.1906 124.666L48.6487 132.658L27.3442 111.353L35.3358 104.812L55.1906 124.666Z" fill="#FF5B5B"/>
<path d="M133.288 128.731L31.3729 26.6586L38.7664 19.2651L21.8195 2.31814C32.3123 -2.17368 44.9368 -0.137992 53.5026 8.42772C59.9428 14.8683 61.8593 22.7701 60.2083 30.4585C59.6548 33.0358 60.4797 35.7166 62.3437 37.5806L122.236 97.4732C124.131 99.368 126.867 100.187 129.478 99.5832C137.295 97.7747 145.364 99.646 151.919 106.201C160.485 114.767 162.521 127.391 158.029 137.884L141.082 120.937L133.288 128.731Z" fill="#C7E2E5"/>
<path d="M135.579 24.4172L151.549 8.44717L157.895 14.7926L141.925 30.7626L135.579 24.4172Z" fill="#A7D2D7"/>
<path d="M5.22083 154.778C6.37547 155.933 7.64621 156.896 8.99539 157.662L25.2012 141.453C27.0399 139.617 27.0399 136.636 25.2012 134.798L5.22083 154.778Z" fill="#FF193D"/>
<path d="M37.9949 122.004L48.6487 132.658L55.1906 124.666L45.2616 114.737L37.9949 122.004Z" fill="#FF193D"/>
</svg>
